<?xml version="1.0" encoding="UTF-8"?>
<svg version="1.1" xmlns="http://www.w3.org/2000/svg" width="773" height="1280">
<path d="M0 0 C255.09 0 510.18 0 773 0 C773 422.4 773 844.8 773 1280 C517.91 1280 262.82 1280 0 1280 C0 857.6 0 435.2 0 0 Z " fill="#CAEFEC" transform="translate(0,0)"/>
<path d="M0 0 C37.33326303 33.40707116 48.1610181 102.34047451 60.36376953 148.61816406 C78.16545462 219.99936592 78.16545462 219.99936592 124.5546875 274.33203125 C140.46888388 283.44205816 157.27628413 286.49288982 175.4296875 286.45703125 C176.12827881 286.45654785 176.82687012 286.45606445 177.54663086 286.45556641 C193.95520806 286.37831495 209.68826437 283.61082014 225.72747803 280.37609863 C232.57835501 278.9955296 239.43554642 277.64600122 246.29153442 276.29107666 C248.04743645 275.94394645 249.80319487 275.59608907 251.55880737 275.24749756 C267.35155472 272.11945746 283.10657328 269.65589079 299.1171875 267.89453125 C300.1071875 267.77883789 301.0971875 267.66314453 302.1171875 267.54394531 C350.24426846 262.03483312 402.23501945 264.13320699 443.1171875 292.89453125 C444.40823285 293.68433065 444.40823285 293.68433065 445.72535992 294.4900856 C448.47602557 297.25526236 448.70871945 298.8394968 448.76259404 302.67165256 C448.74074773 303.82729642 448.74074773 303.82729642 448.71846008 305.00628662 C448.72273221 305.83049834 448.72700433 306.65471007 448.73140591 307.50389791 C448.73965149 310.26975049 448.71212585 313.03409151 448.68481445 315.79980469 C448.68340432 317.78066472 448.68419528 319.76152736 448.68702698 321.74238586 C448.68846388 327.12443687 448.65902942 332.50593279 448.62415719 337.88785458 C448.59293953 343.51059608 448.58996657 349.13334976 448.58403015 354.75616455 C448.56847823 365.40573569 448.52743138 376.05505074 448.4772827 386.70450902 C448.42143129 398.82767233 448.39391329 410.95084775 448.36880553 423.07410765 C448.31651683 448.01439092 448.22854821 472.95444675 448.1171875 497.89453125 C445.60432592 495.47946133 444.08384066 493.24328884 442.48046875 490.1328125 C441.74413208 488.71319214 441.74413208 488.71319214 440.99291992 487.26489258 C440.47705322 486.25579834 439.96118652 485.2467041 439.4296875 484.20703125 C438.89512939 483.17280029 438.36057129 482.13856934 437.80981445 481.07299805 C435.08821513 475.79321823 432.40639155 470.49537983 429.77490234 465.17016602 C413.83689133 432.92116084 390.17237376 410.44943863 356.1171875 397.89453125 C316.13369928 385.65078366 276.65745589 405.0715831 240.85986328 421.51000977 C239.44569682 422.15914504 238.03147145 422.808152 236.6171875 423.45703125 C235.91849548 423.77759491 235.21980347 424.09815857 234.49993896 424.42843628 C215.59213638 433.08427919 196.41657039 441.13617069 176.1171875 445.89453125 C174.87839844 446.21164062 173.63960938 446.52875 172.36328125 446.85546875 C131.1612474 455.91908467 87.1233203 443.51240883 51.9140625 421.76953125 C43.54056333 416.3826599 35.59354863 410.47463665 28.1171875 403.89453125 C27.13363281 403.04375 26.15007812 402.19296875 25.13671875 401.31640625 C-16.40670744 364.79116218 -27.71462774 306.95099604 -35.86328125 254.65625 C-40.42601992 225.51937294 -47.74120229 197.32171425 -67.8828125 174.89453125 C-68.50671875 174.188125 -69.130625 173.48171875 -69.7734375 172.75390625 C-84.31847107 157.2310553 -104.86721852 148.28950748 -126.01586914 147.54467773 C-143.96270629 147.32500759 -158.73223261 154.16478948 -171.484375 166.54296875 C-172.27585938 167.31898438 -173.06734375 168.095 -173.8828125 168.89453125 C-175.14581786 169.96632464 -176.41615879 171.02956301 -177.6953125 172.08203125 C-181.66388969 175.51387464 -185.1479909 179.35184502 -188.6953125 183.20703125 C-215.05270563 211.74401828 -249.56657701 232.17801635 -289.16503906 233.99951172 C-301.4731398 234.40048384 -313.10976343 233.81888094 -324.8828125 229.89453125 C-324.8828125 195.24453125 -324.8828125 160.59453125 -324.8828125 124.89453125 C-321.15163824 126.138256 -317.75766468 127.3462084 -314.1953125 128.89453125 C-294.64458623 136.71482176 -272.83497523 132.60957095 -253.8828125 124.89453125 C-237.12147895 116.75796156 -224.21809932 103.38792902 -212.8828125 88.89453125 C-212.39264648 88.2701416 -211.90248047 87.64575195 -211.39746094 87.00244141 C-204.90641742 78.70566397 -198.68558985 70.28006235 -192.76391602 61.56811523 C-166.07815518 22.35012518 -129.37461457 -6.91380327 -81.8828125 -16.10546875 C-53.78137844 -20.73165345 -22.83800529 -18.65239222 0 0 Z " fill="#A6DCDA" transform="translate(324.8828125,87.10546875)"/>
<path d="M0 0 C1.05185989 -0.00101212 1.05185989 -0.00101212 2.12496948 -0.00204468 C16.98553156 0.02040108 31.58332688 1.25255741 46.3125 3.25 C48.17358398 3.49943359 48.17358398 3.49943359 50.07226562 3.75390625 C100.95277181 10.78088153 147.98740587 26.72625608 190.3125 56.25 C190.94913574 56.69230957 191.58577148 57.13461914 192.24169922 57.59033203 C204.89441435 66.41213262 216.98724602 75.82168433 228.69189453 85.86328125 C230.83181822 87.69436991 232.9841171 89.51055443 235.13696289 91.32641602 C237.86626925 93.62941025 240.58921765 95.93988891 243.3125 98.25 C243.88645508 98.7361377 244.46041016 99.22227539 245.05175781 99.72314453 C252.37281913 105.93048282 259.56882041 112.2358714 266.59375 118.77734375 C268.51736104 120.52683482 270.43972611 122.19344708 272.44921875 123.8359375 C274.76269667 125.78645504 276.69060124 127.6332162 278.625 129.9375 C281.20079479 132.9698361 283.85009952 135.90186705 286.5625 138.8125 C287.27327194 139.62911606 287.98404388 140.44573212 288.71635437 141.28709412 C290.02181064 142.77697359 291.32934648 144.26733609 292.7098484 145.68795967 C302.17841493 155.48338999 303.67732158 164.19846779 303.5587616 177.56822205 C303.50261331 179.89837516 303.44523777 182.22849897 303.38671875 184.55859375 C303.36616346 186.98092592 303.35052381 189.40330431 303.33955383 191.82569885 C303.29785876 198.15452749 303.19007848 204.48051128 303.06781006 210.80822754 C302.95461521 217.28386971 302.90490257 223.75997855 302.84960938 230.23632812 C302.73217769 242.90875513 302.54697915 255.5792252 302.3125 268.25 C263.10991783 268.52503232 223.90746204 268.73630062 184.70410681 268.86278395 C180.06941924 268.87779134 175.43473357 268.89332331 170.80004883 268.90917969 C169.41610188 268.91390128 169.41610188 268.91390128 168.0041964 268.91871825 C153.09064155 268.97084781 138.17764523 269.06541388 123.26442105 269.17583355 C107.94705574 269.2882945 92.6299817 269.35475616 77.31222051 269.37906194 C67.86995631 269.39547814 58.42927106 269.4472052 48.98749327 269.5449976 C42.50128525 269.60873081 36.01588609 269.62753455 29.52938814 269.61201653 C25.79363492 269.60437497 22.06062768 269.6155668 18.32537079 269.6804657 C1.92151417 269.95135674 -10.61689266 269.52581449 -23.02323353 257.81166697 C-25.26890614 255.70443667 -27.65246256 253.7887741 -30.04649776 251.85399127 C-32.65414522 249.72047898 -35.16375704 247.48201999 -37.6875 245.25 C-38.5228125 244.52554687 -39.358125 243.80109375 -40.21875 243.0546875 C-51.31019985 233.29565208 -61.57028465 222.87798034 -70.6875 211.25 C-71.63953486 210.08528009 -72.59411713 208.92263933 -73.55078125 207.76171875 C-100.5620283 174.8340521 -117.27435703 139.64468476 -114.6875 96.25 C-113.98732679 90.07206382 -112.57239698 84.16643917 -110.6875 78.25 C-110.32527344 77.11046875 -109.96304687 75.9709375 -109.58984375 74.796875 C-99.38412103 46.15166006 -78.90917022 23.80634818 -51.6875 10.25 C-35.10878346 2.39439989 -18.19117296 0.01583405 0 0 Z " fill="#A6DCDA" transform="translate(470.6875,1011.75)"/>
<path d="M0 0 C120.12 0 240.24 0 364 0 C370.46970853 18.11518387 374.68699 35.70295913 376.96484375 54.76171875 C377.13458207 56.15142545 377.30442527 57.54111934 377.47436523 58.93080139 C379.54196583 76.0084935 381.23097076 93.12854085 382.92724609 110.24633789 C388.09543482 162.29178675 397.29563525 215.17185952 434 255 C434.73734375 255.81984375 435.4746875 256.6396875 436.234375 257.484375 C457.01057325 279.51026939 488.39541835 293.690097 518.5949707 295.17700195 C554.80017805 295.75615606 586.5859747 288.77450798 621.0798645 278.15280151 C639.81773007 272.39695439 657.53864664 268.83140385 677.1875 268.75 C679.02538086 268.7190625 679.02538086 268.7190625 680.90039062 268.6875 C692.61978328 268.63807715 703.88505073 270.15315822 714.3125 275.75 C714.93705078 276.059375 715.56160156 276.36875 716.20507812 276.6875 C725.88955467 281.68338145 733.35106607 289.13116137 740.875 296.875 C748.67493194 304.82096541 748.67493194 304.82096541 757.0625 312.125 C757.814104 312.73923828 758.56570801 313.35347656 759.34008789 313.98632812 C761.94031938 316.06517208 761.94031938 316.06517208 764.86425781 317.52441406 C768.51973 319.87567874 771.14622291 322.06650736 773 326 C774.7931449 335.02055581 774.08956733 344.429759 773.75531006 353.57324219 C773.64188758 357.00511439 773.59235797 360.43787958 773.53710938 363.87109375 C773.41631444 370.58305444 773.23264181 377.29103424 773 384 C771.87171783 383.28071068 771.87171783 383.28071068 770.72064209 382.54689026 C769.73227356 381.91725876 768.74390503 381.28762726 767.72558594 380.63891602 C766.74652283 380.0150148 765.76745972 379.39111359 764.75872803 378.74830627 C699.77829644 337.56784371 617.76262053 355.10116328 547.0246582 368.92822266 C541.6866179 369.97108539 536.34526178 370.99482527 531 372 C529.78272217 372.23033936 528.56544434 372.46067871 527.3112793 372.69799805 C519.47616225 374.05241691 511.72907109 374.34045794 503.79907227 374.31567383 C501.69950093 374.31251804 499.60135152 374.33606962 497.50195312 374.36132812 C473.81905779 374.47348498 452.62775887 367.72662405 435.375 350.9375 C428.83408896 344.29618235 423.70811591 337.02031001 419 329 C418.39575195 327.97688721 418.39575195 327.97688721 417.77929688 326.93310547 C400.15572168 296.55268721 390.98004897 261.92205691 382.1875 228.1875 C364.4284115 146.01561812 364.4284115 146.01561812 316.25 81.8125 C302.66775723 74.11101258 287.50979397 70.75085236 272 70 C271.17886719 69.95875 270.35773438 69.9175 269.51171875 69.875 C227.86886946 68.86394448 188.31224465 88.58527168 158.43994141 116.58325195 C146.9499136 127.67254842 138.0268556 141.30074033 128.95703125 154.375 C108.11329821 184.38160515 85.52953143 212.22214059 48 220 C30.24184924 223.1006295 16.27698706 219.51245557 0 212 C0 142.04 0 72.08 0 0 Z " fill="#A6DCDA" transform="translate(0,0)"/>
<path d="M0 0 C32.96023235 26.90631212 41.37437558 62.15198288 48.06713867 102.43774414 C56.9958325 155.95583753 70.73007272 212.62303122 116.296875 246.875 C117.08118896 247.47175537 117.08118896 247.47175537 117.88134766 248.08056641 C126.88220344 254.89166572 136.29260361 260.65901613 146.296875 265.875 C146.94962402 266.21772949 147.60237305 266.56045898 148.27490234 266.91357422 C187.0936715 287.00086894 229.98469479 291.95695111 271.80615234 279.08618164 C292.14092417 272.52377051 311.51652551 263.44483628 330.85449219 254.43164062 C363.45177665 239.26357132 402.13885834 222.7385635 438.2578125 235.1640625 C480.87138622 251.03255603 502.95303566 282.22272368 521.44067383 321.93115234 C521.88306396 322.87297363 522.3254541 323.81479492 522.78125 324.78515625 C523.17022461 325.62183838 523.55919922 326.45852051 523.95996094 327.32055664 C525.24984053 329.98508793 525.24984053 329.98508793 527.35205078 332.43556213 C529.90926036 336.95800862 529.83382335 340.35954134 529.75097656 345.46044922 C529.75156067 346.40742172 529.75214478 347.35439423 529.75274658 348.33006287 C529.74996924 351.44698275 529.71889323 354.56293554 529.6875 357.6796875 C529.68003638 359.84587074 529.67434402 362.01206076 529.67034912 364.17825317 C529.65510243 369.8698604 529.61582849 375.56105704 529.5715332 381.25250244 C529.53055995 387.0641118 529.51233369 392.87578773 529.4921875 398.6875 C529.44933366 410.08351338 529.38109366 421.4792225 529.296875 432.875 C523.80008972 427.41520468 523.80008972 427.41520468 521.71875 424.67578125 C521.2846582 424.11133301 520.85056641 423.54688477 520.40332031 422.96533203 C519.73187988 422.08530518 519.73187988 422.08530518 519.046875 421.1875 C515.00195435 415.96087099 510.80663892 410.95903764 506.33203125 406.08984375 C504.51220331 404.10934003 502.74121169 402.09873723 500.984375 400.0625 C466.83685094 361.01417387 417.09780463 327.91156666 364.296875 322.875 C332.62709847 321.11180045 303.76793705 333.95349023 275.1015625 345.85546875 C252.37877224 355.27976175 231.04183488 361.89470747 206.296875 362.875 C205.33652344 362.92785156 204.37617188 362.98070312 203.38671875 363.03515625 C164.29089532 364.21987817 115.46322845 350.96427756 84.296875 326.875 C83.78012207 326.47877441 83.26336914 326.08254883 82.73095703 325.67431641 C39.78815822 292.34500764 24.17665865 232.39593619 10.12768555 182.41503906 C7.51552392 173.17354383 4.76694517 164.01423387 1.6015625 154.9453125 C1.32038071 154.13902405 1.03919891 153.3327356 0.74949646 152.50201416 C-3.81953395 139.67404786 -10.37687164 128.59046645 -18.703125 117.875 C-19.33863281 117.05257812 -19.97414062 116.23015625 -20.62890625 115.3828125 C-26.38727866 108.45303671 -33.52345278 103.2300465 -40.703125 97.875 C-41.26805664 97.44541992 -41.83298828 97.01583984 -42.41503906 96.57324219 C-69.68057802 75.87310478 -99.56472786 64.78089806 -134.18359375 69.37890625 C-137.76464197 70.03926814 -141.20386517 70.87111398 -144.703125 71.875 C-145.84523438 72.18050781 -146.98734375 72.48601562 -148.1640625 72.80078125 C-164.93061385 77.80165069 -180.26109355 86.93912972 -195.35742188 95.59326172 C-204.05296306 100.56026025 -212.86186435 105.29924978 -221.703125 110 C-222.74820221 110.55763031 -222.74820221 110.55763031 -223.81439209 111.12652588 C-225.81723422 112.19442801 -227.82225317 113.25811399 -229.828125 114.3203125 C-230.98570312 114.93406738 -232.14328125 115.54782227 -233.3359375 116.18017578 C-236.72446897 117.88574317 -240.21629219 119.38064308 -243.703125 120.875 C-243.703125 103.385 -243.703125 85.895 -243.703125 67.875 C-237.433125 68.865 -231.163125 69.855 -224.703125 70.875 C-181.3089228 72.59927293 -146.11298953 56.62932219 -114.61108398 27.6003418 C-110.77106845 23.99439734 -107.17441106 20.21692242 -103.640625 16.3125 C-75.45710563 -14.76068681 -36.31442673 -27.29675029 0 0 Z " fill="#A6DCDA" transform="translate(243.703125,249.125)"/>
<path d="M0 0 C20.89775399 -0.82457229 37.99636256 7.52382664 53.1484375 21.31640625 C54.1769695 22.27216036 55.20443132 23.22906837 56.23046875 24.1875 C56.98972656 24.87714844 57.74898437 25.56679688 58.53125 26.27734375 C78.21489436 44.93538741 83.47141199 66.01733258 84.23901367 92.30834961 C84.77568428 109.55301777 88.15610756 125.10037728 93.73046875 141.4375 C93.94023346 142.05981506 94.14999817 142.68213013 94.36611938 143.32330322 C99.38390027 158.18506682 105.20748683 172.70844089 111.23046875 187.1875 C111.57706543 188.03006348 111.92366211 188.87262695 112.28076172 189.74072266 C126.45757177 224.09659068 148.01992139 264.35848281 183.35546875 280.125 C203.74910698 287.94795646 227.48303916 284.49034317 247.23046875 276.1875 C258.56082537 271.1158865 269.36562165 265.0618676 280.10546875 258.85888672 C341.61448725 223.33562475 406.09489436 191.24941193 478.2734375 209.38964844 C520.59507114 220.80866253 557.62824489 246.28347704 590.43359375 274.67797852 C591.78907695 275.8166949 593.16843754 276.92707502 594.55859375 278.02319336 C602.09683426 284.00363215 608.87579908 290.55755057 615.63867188 297.38989258 C617.48641473 299.25600509 619.3421484 301.11387712 621.19921875 302.97070312 C627.08724917 308.87637123 632.83147523 314.82630021 638.23046875 321.1875 C639.89122235 323.02619148 641.55723783 324.8601557 643.23046875 326.6875 C646.66311636 330.45100521 650.04601885 334.24879351 653.38671875 338.09375 C656.41373825 341.53121282 659.51238284 344.9032746 662.60546875 348.28125 C664.00725209 349.83322441 665.40120318 351.39378909 666.73461914 353.00488281 C669.98736616 356.89302564 673.33279065 360.18081923 677.2890625 363.359375 C692.46676355 375.99543544 692.46676355 375.99543544 693.53125 386.71875 C693.69120132 393.59362266 693.18929477 400.38131037 692.23046875 407.1875 C688.80154564 403.89573382 685.92468751 400.5543425 683.16796875 396.6875 C678.82924904 390.80079486 674.05286103 385.49866463 669.02734375 380.1953125 C667.13464619 378.19382799 665.34427015 376.14492506 663.6015625 374.01171875 C661.66831205 371.70901682 659.83298382 369.79742046 657.54296875 367.875 C654.44970228 365.2393516 651.41968717 362.55216364 648.41796875 359.8125 C644.14466976 355.95484103 639.73655034 352.30758847 635.26171875 348.6875 C631.79954885 345.83210214 628.42119008 342.8911457 625.04296875 339.9375 C602.73221345 320.51562144 578.95976799 302.84750496 553.23046875 288.1875 C552.52470703 287.7853125 551.81894531 287.383125 551.09179688 286.96875 C513.25997362 265.67379232 470.83809359 256.8810299 428.23046875 251.1875 C427.24385254 251.05327637 426.25723633 250.91905273 425.24072266 250.78076172 C388.12409145 245.91267008 349.7396992 247.54869838 318.9140625 271 C295.99491756 289.68227244 280.13450707 314.41005588 276.23046875 344.1875 C275.94068039 348.77472975 275.89639678 353.3420446 275.91796875 357.9375 C275.9228833 359.1752417 275.92779785 360.4129834 275.93286133 361.68823242 C276.04666991 370.5670526 276.7118401 378.6323201 279.23046875 387.1875 C279.55917969 388.36183594 279.88789063 389.53617188 280.2265625 390.74609375 C287.22699759 413.6367898 299.80602827 434.28403896 314.97070312 452.65576172 C316.16109141 454.10314469 317.32933367 455.56865953 318.49609375 457.03515625 C330.82846958 472.45062604 344.64012082 487.05219498 360.23046875 499.1875 C360.75817871 499.60273926 361.28588867 500.01797852 361.82958984 500.44580078 C367.95940127 505.2686392 374.12340118 509.94908913 380.71875 514.12890625 C381.21761719 514.47824219 381.71648437 514.82757812 382.23046875 515.1875 C382.23046875 515.5175 382.23046875 515.8475 382.23046875 516.1875 C342.96046875 516.1875 303.69046875 516.1875 263.23046875 516.1875 C260.98165838 504.94344816 260.09117727 494.88400756 260.23828125 483.515625 C260.25581892 481.05078552 260.2727251 478.58594148 260.2890625 476.12109375 C260.31975213 472.29755529 260.35501849 468.47425537 260.40185547 464.65087891 C260.6434677 443.76635181 260.20263501 423.09718777 253.23046875 403.1875 C252.88371094 402.17816406 252.53695313 401.16882812 252.1796875 400.12890625 C244.50791056 379.85537886 228.78179827 365.67520333 209.35546875 356.8125 C194.18351453 350.76422095 178.06643923 348.69747736 161.859375 347.73046875 C161.19232544 347.69036682 160.52527588 347.65026489 159.8380127 347.60894775 C156.47886731 347.40886292 153.12051357 347.22339662 149.75927734 347.06005859 C130.24603605 345.98218431 112.28362375 342.25570934 98.54296875 327.375 C82.31152258 307.70278644 78.91832209 281.43930174 79.30859375 256.75 C79.33073704 254.61947757 79.34916295 252.48894061 79.36759567 250.35838318 C79.41269964 245.16440006 79.46473422 239.97079545 79.55273438 234.77734375 C80.13411279 199.34178292 75.68806007 168.45295372 50.1796875 142.0390625 C30.76488921 122.77446279 5.15268493 112.42578817 -22.01953125 111.875 C-43.48770597 112.49618561 -62.43870977 118.37776239 -79.76953125 131.1875 C-80.09953125 131.1875 -80.42953125 131.1875 -80.76953125 131.1875 C-81.23706597 121.10422845 -81.59027803 111.02360858 -81.80577469 100.93162918 C-81.90932686 96.24246662 -82.04913702 91.56081338 -82.27832031 86.87597656 C-83.83627447 54.18448625 -83.83627447 54.18448625 -76.44384766 44.33105469 C-71.73595834 39.19793808 -66.46483375 35.15149916 -60.76953125 31.1875 C-58.68135319 29.48444143 -56.6695994 27.71612824 -54.64453125 25.9375 C-53.0229954 24.68300947 -51.39823921 23.4326648 -49.76953125 22.1875 C-48.98191406 21.52105469 -48.19429687 20.85460937 -47.3828125 20.16796875 C-33.64320257 8.59660644 -18.01567478 1.21967897 0 0 Z " fill="#A6DCDA" transform="translate(80.76953125,763.8125)"/>
<path d="M0 0 C1.00804687 0.84433594 2.01609375 1.68867187 3.0546875 2.55859375 C35.30113772 30.42059088 45.37394754 75.31864796 55.4375 114.875 C66.65009624 158.89640458 79.64338605 208.49371827 121 234 C122.01191406 234.64453125 123.02382813 235.2890625 124.06640625 235.953125 C158.935453 257.12506069 199.37241701 255.86731723 237.87939453 246.82788086 C249.97697118 243.86738545 261.95910581 240.45974381 273.96020508 237.13464355 C314.55970262 225.90752366 314.55970262 225.90752366 335.4140625 225.796875 C336.29774506 225.78981537 337.18142761 225.78275574 338.09188843 225.77548218 C374.15156013 225.55286964 374.15156013 225.55286964 391 229 C391.99644531 229.18804199 392.99289062 229.37608398 394.01953125 229.56982422 C454.35769678 241.03371087 512.43744624 269.46831088 560 308 C560.91523437 308.721875 561.83046875 309.44375 562.7734375 310.1875 C579.56458579 323.58102591 595.86088875 338.98805849 609 356 C609.87604021 357.11999655 610.75235491 358.23977844 611.62890625 359.359375 C614.11444946 362.55232137 616.58607483 365.75224922 619 369 C619.69859131 369.75643799 620.39718262 370.51287598 621.11694336 371.29223633 C624.55846065 376.53661341 623.48471685 383.34947711 623.390625 389.3671875 C623.38315652 390.77107942 623.37746646 392.17498183 623.37347412 393.57888794 C623.35826516 397.25835392 623.31902582 400.93717955 623.2746582 404.61639404 C623.23360214 408.3769871 623.21544118 412.13768451 623.1953125 415.8984375 C623.15252559 423.26591565 623.08433348 430.6328678 623 438 C618.92523683 434.56568458 614.96117535 431.0883627 611.1875 427.3203125 C610.33929687 426.47339844 609.49109375 425.62648438 608.6171875 424.75390625 C607.75351562 423.88636719 606.88984375 423.01882813 606 422.125 C605.13632812 421.26519531 604.27265625 420.40539063 603.3828125 419.51953125 C598.37884756 414.5079615 593.60667348 409.37675343 589 404 C587.60822597 402.45466772 586.21297685 400.91244964 584.8125 399.375 C581.78144174 396.02246587 578.82047182 392.62388835 575.90478516 389.17163086 C560.38028298 370.82378744 543.64037137 351.86197727 524.63671875 337.078125 C522.088546 335.06978737 519.66063668 332.97177473 517.22729492 330.828125 C472.6716696 291.73253178 415.21938156 260.25833452 354.38916016 262.84326172 C341.33298923 263.69979776 328.47374842 266.07639266 316 270 C315.30777344 270.21575684 314.61554688 270.43151367 313.90234375 270.65380859 C276.7552297 282.42197502 239.72463519 300.83469302 206.46435547 320.90258789 C181.02182519 336.24717342 153.28897533 348.55501321 122.93359375 342.75 C93.0776357 335.117052 74.55122977 308.58067388 59.6484375 283.53515625 C45.47701063 259.38047439 35.30249553 233.36035127 26 207 C25.42693115 205.38158203 25.42693115 205.38158203 24.84228516 203.73046875 C23.73353337 200.57541421 22.64361891 197.41461978 21.5625 194.25 C21.24442383 193.33508789 20.92634766 192.42017578 20.59863281 191.47753906 C15.60609404 176.55366375 14.44186913 162.12017488 13.99145508 146.54296875 C13.37956299 126.67726843 9.33429303 109.46559397 -4 94 C-4.6909375 93.18789063 -5.381875 92.37578125 -6.09375 91.5390625 C-21.06588298 74.40545962 -39.06732522 61.48336184 -62.359375 59.75 C-84.52129641 59.32584839 -102.19267898 68.15245878 -119 82 C-119.49306641 82.40283203 -119.98613281 82.80566406 -120.49414062 83.22070312 C-128.7688481 90.01456815 -136.4489966 97.26427613 -143.93383789 104.91967773 C-144.5808667 105.58040283 -145.22789551 106.24112793 -145.89453125 106.921875 C-146.47050049 107.51581055 -147.04646973 108.10974609 -147.63989258 108.72167969 C-149 110 -149 110 -150 110 C-150.20912761 98.19501229 -150.36874609 86.39046981 -150.46630955 74.58400249 C-150.51315158 69.10082457 -150.57661829 63.61891985 -150.67895508 58.13647461 C-150.77721321 52.83898851 -150.83065518 47.54272177 -150.85389519 42.2443943 C-150.87044212 40.2297529 -150.90275583 38.21517342 -150.95157051 36.20105553 C-151.36410818 18.46362264 -151.36410818 18.46362264 -145.61474609 11.36352539 C-144.11663068 9.86771319 -142.58326258 8.40537665 -141 7 C-140.08513502 6.00380896 -139.17791125 5.00042767 -138.28515625 3.984375 C-101.4641073 -33.03080953 -39.2436093 -32.88122578 0 0 Z " fill="#E3FCF9" transform="translate(150,705)"/>
<path d="M0 0 C0.81984375 0.7940625 1.6396875 1.588125 2.484375 2.40625 C3.02932617 2.92348633 3.57427734 3.44072266 4.13574219 3.97363281 C8.35468519 8.05878757 11.89050926 12.33480894 15.234375 17.15625 C15.74170166 17.88505371 16.24902832 18.61385742 16.77172852 19.36474609 C25.63058649 32.29003261 33.50976376 45.13869573 37.484375 60.40625 C37.68772461 61.17775391 37.89107422 61.94925781 38.10058594 62.74414062 C40.37146719 71.45649633 42.49104896 80.2071444 44.56689453 88.96777344 C49.63491333 110.33495155 54.97374946 131.09532141 63.484375 151.40625 C63.87512207 152.34355957 64.26586914 153.28086914 64.66845703 154.24658203 C71.45666378 170.33260952 79.3685427 184.87533481 90.484375 198.40625 C90.9273291 198.95216797 91.3702832 199.49808594 91.82666016 200.06054688 C109.50753346 221.74571098 129.13993016 237.79479266 153.484375 251.40625 C154.46446533 251.9640918 154.46446533 251.9640918 155.46435547 252.53320312 C201.75536337 278.77364449 253.54157816 292.53223003 305.78710938 278.23486328 C319.89909402 274.32987022 333.92051556 270.11429759 347.921875 265.83203125 C387.90173543 253.61812118 426.48164031 247.64943775 465.06738281 267.75195312 C491.39900746 281.89535255 514.58641182 298.18833003 532.484375 322.40625 C534.54341794 325.17966851 536.60656975 327.94999238 538.671875 330.71875 C539.1786377 331.4003418 539.68540039 332.08193359 540.20751953 332.78417969 C543.40332799 337.05432375 546.71471776 341.13656636 550.375 345.0234375 C551.484375 346.40625 551.484375 346.40625 551.484375 348.40625 C549.74414062 348.08140625 549.74414062 348.08140625 547.96875 347.75 C529.65591533 344.43576221 512.37995752 344.14708896 495.484375 353.40625 C489.32120582 357.81893326 484.42036147 362.20085158 483.0390625 369.8828125 C482.31080982 378.59835266 485.64409798 384.73552237 489.734375 392.1328125 C491.484375 395.40625 491.484375 395.40625 491.484375 397.40625 C486.92996027 395.90037128 482.38332862 394.37709603 477.85546875 392.79296875 C436.94496578 378.61138002 394.17248995 374.06624651 351.359375 369.40625 C283.62553147 362.01428879 218.30960989 350.65794334 161.484375 310.40625 C160.75105957 309.890625 160.01774414 309.375 159.26220703 308.84375 C148.88251132 301.49156526 139.5905848 293.27084948 130.484375 284.40625 C129.61941406 283.58125 128.75445312 282.75625 127.86328125 281.90625 C112.87440546 267.35898754 100.75463106 249.51713946 90.484375 231.40625 C90.11844238 230.76913086 89.75250977 230.13201172 89.37548828 229.47558594 C81.86648421 216.37916063 75.02075342 202.9331169 68.11804199 189.51171875 C65.27450741 183.98773852 62.378154 178.49286198 59.46826172 173.00366211 C56.77598496 167.90604429 54.13651193 162.78299104 51.515625 157.6484375 C28.32232815 112.23032477 5.01650598 72.73017435 -45.640625 54.71875 C-93.08654226 39.7783335 -138.76343304 46.25420426 -185.52978516 60.85888672 C-187.515625 61.40625 -187.515625 61.40625 -189.515625 61.40625 C-189.515625 51.17625 -189.515625 40.94625 -189.515625 30.40625 C-186.545625 28.735625 -183.575625 27.065 -180.515625 25.34375 C-172.31764827 20.69517115 -164.29243428 15.81851091 -156.328125 10.78125 C-108.79074645 -19.18755535 -48.03359956 -44.38967132 0 0 Z " fill="#A6DCDA" transform="translate(189.515625,379.59375)"/>
<path d="M0 0 C12.96592478 9.75347177 22.70086995 21.86680781 30.6171875 35.96875 C30.94428711 36.53980469 31.27138672 37.11085938 31.60839844 37.69921875 C39.71364659 52.02771597 43.89417792 67.78020472 48.546875 83.4765625 C54.78928908 104.39997665 62.25640319 124.71151836 72.6171875 143.96875 C72.99842773 144.6911084 73.37966797 145.4134668 73.77246094 146.15771484 C79.33708679 156.67938653 85.38845511 166.51305307 92.6171875 175.96875 C93.05144043 176.54044922 93.48569336 177.11214844 93.93310547 177.70117188 C100.82776478 186.73954878 108.09666944 195.44598629 115.6171875 203.96875 C116.09236816 204.50854492 116.56754883 205.04833984 117.05712891 205.60449219 C129.31929255 219.44412113 142.79056923 231.924563 157.6171875 242.96875 C158.1652002 243.38431152 158.71321289 243.79987305 159.27783203 244.22802734 C216.25222406 287.32425723 285.18941682 295.65313051 354.6796875 289.46875 C421.88304626 283.49016773 477.07540955 308.83663074 528.38623047 351.4375 C530.17857816 352.93984437 531.96271093 354.45118666 533.7421875 355.96875 C534.25547607 356.40638672 534.76876465 356.84402344 535.29760742 357.29492188 C545.43503375 366.04376713 555.0992115 375.26413842 564.5637207 384.72998047 C566.30857558 386.47263317 568.06132493 388.20708163 569.81445312 389.94140625 C576.54940123 396.64301919 582.7233455 403.50693371 588.6171875 410.96875 C590.45284307 413.17266199 592.31695201 415.35000096 594.1796875 417.53125 C597.43634843 421.35529918 600.63185756 425.21113966 603.7421875 429.15625 C607.14872993 433.45448452 610.75402465 437.53067386 614.44921875 441.58203125 C616.98589199 444.37465711 619.45585945 447.22033527 621.9140625 450.08203125 C623.65828979 452.12936636 623.65828979 452.12936636 626.30078125 454.0234375 C629.75944701 458.42113393 629.16634223 462.36003619 628.9296875 467.78125 C628.89584961 469.24981445 628.89584961 469.24981445 628.86132812 470.74804688 C628.80258477 473.15652455 628.72050879 475.56184078 628.6171875 477.96875 C625.6595389 475.15473996 623.27445223 472.24397589 620.9296875 468.90625 C607.83508987 450.68978024 591.97537987 433.26548036 574.6171875 418.96875 C574.08996094 418.52772949 573.56273437 418.08670898 573.01953125 417.63232422 C524.85459104 377.3865116 466.65395821 348.12031237 405.2421875 334.65625 C404.13786377 334.41342285 403.03354004 334.1705957 401.89575195 333.92041016 C385.78333673 330.55377907 369.97462486 329.55315482 353.5546875 329.59375 C352.60609863 329.59529083 351.65750977 329.59683167 350.68017578 329.59841919 C335.95027382 329.65525134 321.97163303 330.44058996 307.6171875 333.96875 C306.68537659 334.19428558 306.68537659 334.19428558 305.73474121 334.42437744 C291.88534883 337.77671327 278.13125841 341.47926242 264.375 345.19140625 C219.3741124 357.33333108 174.25421463 364.8355751 131.6171875 340.96875 C130.61945313 340.41316406 129.62171875 339.85757812 128.59375 339.28515625 C121.04680948 334.77645396 114.90825735 329.03830331 108.6171875 322.96875 C107.55371094 322.00001953 107.55371094 322.00001953 106.46875 321.01171875 C78.02181074 294.36448382 68.74824062 252.73194588 59.6953125 216.3046875 C56.14263301 202.01581796 52.19466471 188.00305444 47.5546875 174.03125 C47.31092377 173.29056274 47.06716003 172.54987549 46.81600952 171.78674316 C40.27999631 152.01907338 32.40776642 132.86476081 18.6171875 116.96875 C17.94171875 116.14890625 17.26625 115.3290625 16.5703125 114.484375 C-0.51166406 94.4099354 -25.51900072 82.3698961 -51.63671875 80.12890625 C-79.23452807 78.51936118 -106.9138769 84.7916891 -127.96728516 103.36669922 C-133.33228956 108.31703385 -138.19382866 113.59793226 -142.359375 119.60546875 C-142.86597656 120.28029297 -142.86597656 120.28029297 -143.3828125 120.96875 C-143.7128125 120.96875 -144.0428125 120.96875 -144.3828125 120.96875 C-144.6387412 113.41130888 -144.81245789 105.85500436 -144.93212891 98.29418945 C-144.98207013 95.72866061 -145.05005069 93.16341125 -145.13720703 90.59887695 C-145.67161933 74.45648206 -145.56653195 63.16274221 -134.3828125 50.96875 C-132.96300417 49.23979153 -131.56769826 47.49300971 -130.17333984 45.74351501 C-128.00033599 43.07086108 -125.6979769 40.51817678 -123.3828125 37.96875 C-122.61710937 37.11925781 -121.85140625 36.26976562 -121.0625 35.39453125 C-113.64961626 27.59215701 -105.06672913 21.27059936 -96.3828125 14.96875 C-95.74682129 14.50404297 -95.11083008 14.03933594 -94.45556641 13.56054688 C-68.02476647 -5.54673357 -29.75344474 -20.35308104 0 0 Z " fill="#A6DCDA" transform="translate(144.3828125,602.03125)"/>
<path d="M0 0 C37.33326303 33.40707116 48.1610181 102.34047451 60.36376953 148.61816406 C78.16545462 219.99936592 78.16545462 219.99936592 124.5546875 274.33203125 C140.46888388 283.44205816 157.27628413 286.49288982 175.4296875 286.45703125 C176.12827881 286.45654785 176.82687012 286.45606445 177.54663086 286.45556641 C193.95520806 286.37831495 209.68826437 283.61082014 225.72747803 280.37609863 C232.57835501 278.9955296 239.43554642 277.64600122 246.29153442 276.29107666 C248.04743645 275.94394645 249.80319487 275.59608907 251.55880737 275.24749756 C267.35155472 272.11945746 283.10657328 269.65589079 299.1171875 267.89453125 C300.1071875 267.77883789 301.0971875 267.66314453 302.1171875 267.54394531 C350.24426846 262.03483312 402.23501945 264.13320699 443.1171875 292.89453125 C443.97857834 293.40671204 444.83996918 293.91889282 445.72746277 294.44659424 C448.56519785 297.35345487 448.70377473 299.18256406 448.73928833 303.16719055 C448.71232376 304.42199471 448.71232376 304.42199471 448.68481445 305.70214844 C448.68554459 306.59030746 448.68627472 307.47846649 448.68702698 308.39353943 C448.68354581 311.32678477 448.64465979 314.25843863 448.60546875 317.19140625 C448.59614251 319.22592298 448.5890255 321.26045094 448.58403015 323.29498291 C448.56494561 328.64808186 448.51583178 334.00050175 448.46051025 339.35333252 C448.40934946 344.81619073 448.38652285 350.27915874 448.36132812 355.7421875 C448.30771485 366.45993366 448.22238403 377.17717597 448.1171875 387.89453125 C446.99553756 386.93798905 445.87457638 385.98063917 444.75390625 385.02294922 C443.81744263 384.2233931 443.81744263 384.2233931 442.86206055 383.40768433 C436.20434305 377.63411488 430.44340866 370.9950653 424.75585938 364.28955078 C421.23352241 360.13691297 417.69273074 356.0014855 414.1171875 351.89453125 C413.52292969 351.21132813 412.92867187 350.528125 412.31640625 349.82421875 C391.24694109 327.2847909 358.90552048 315.52227605 328.63183594 314.49194336 C305.5827766 314.17970241 283.22408628 320.00848581 261.1171875 325.89453125 C254.03530293 327.77501644 246.95209946 329.65048381 239.8671875 331.51953125 C238.5052124 331.87904373 238.5052124 331.87904373 237.11572266 332.24581909 C226.49145513 335.04409889 215.87565586 337.77891021 205.1171875 340.01953125 C204.21838867 340.20725098 203.31958984 340.3949707 202.39355469 340.58837891 C173.1193116 346.3990955 145.65086831 340.88418893 119.1171875 327.89453125 C118.38580566 327.53842773 117.65442383 327.18232422 116.90087891 326.81542969 C102.66171963 319.79848316 90.33828215 311.37442041 78.8359375 300.4375 C76.1487762 297.85836598 76.1487762 297.85836598 73.2109375 295.5703125 C38.27577375 266.78125429 20.12885149 215.48144985 15.82171631 171.90518188 C15.21608973 164.04647937 14.88288254 156.17035425 14.55639648 148.29589844 C12.71002403 105.65065084 -5.61431151 69.09517597 -36.0703125 39.2578125 C-49.60546881 27.88452144 -63.72710853 25.64775044 -80.8828125 26.89453125 C-110.42626724 30.65987352 -135.29376496 48.52852446 -153.3203125 71.51953125 C-158.24153948 77.90081286 -162.98504922 84.42059976 -167.75048828 90.91845703 C-172.69385622 97.65891824 -177.71711113 104.32241461 -182.8828125 110.89453125 C-183.594375 111.80074219 -184.3059375 112.70695313 -185.0390625 113.640625 C-194.27093628 125.16374281 -204.02678374 136.02036514 -215.8828125 144.89453125 C-216.65625 145.48363281 -217.4296875 146.07273438 -218.2265625 146.6796875 C-243.43906909 165.12683816 -277.68476413 177.11802147 -309.1953125 172.29296875 C-314.74625252 171.33440768 -319.79243803 170.43971849 -324.8828125 167.89453125 C-324.8828125 153.70453125 -324.8828125 139.51453125 -324.8828125 124.89453125 C-321.15163824 126.138256 -317.75766468 127.3462084 -314.1953125 128.89453125 C-294.64458623 136.71482176 -272.83497523 132.60957095 -253.8828125 124.89453125 C-237.12147895 116.75796156 -224.21809932 103.38792902 -212.8828125 88.89453125 C-212.39264648 88.2701416 -211.90248047 87.64575195 -211.39746094 87.00244141 C-204.90641742 78.70566397 -198.68558985 70.28006235 -192.76391602 61.56811523 C-166.07815518 22.35012518 -129.37461457 -6.91380327 -81.8828125 -16.10546875 C-53.78137844 -20.73165345 -22.83800529 -18.65239222 0 0 Z " fill="#E3FCF9" transform="translate(324.8828125,87.10546875)"/>
<path d="M0 0 C6.22651768 5.37396372 11.31513788 11.33482199 16.3515625 17.81640625 C17.14304688 18.79222656 17.93453125 19.76804687 18.75 20.7734375 C36.87191529 43.49729027 48.69626639 70.20771269 60.52394104 96.54211426 C67.79817583 112.72381562 75.12526159 128.9147835 83.25585938 144.68701172 C84.06623969 146.26190859 84.87144571 147.83947037 85.67382812 149.41845703 C97.67782776 173.03254968 110.98045836 195.69407751 128.3515625 215.81640625 C129.02058594 216.59628906 129.68960937 217.37617187 130.37890625 218.1796875 C140.41934579 229.60372579 151.19591012 240.64425901 163.3515625 249.81640625 C163.86477051 250.20602539 164.37797852 250.59564453 164.90673828 250.99707031 C190.33304578 270.16354383 218.21432941 281.34131132 249.44921875 287.3046875 C250.56616119 287.51810791 251.68310364 287.73152832 252.83389282 287.95141602 C265.23524497 290.25576338 277.70645916 291.82143916 290.2265625 293.31640625 C292.67097999 293.61570843 295.11531468 293.9156875 297.55957031 294.21630859 C310.88083819 295.84533225 324.21173652 297.36991794 337.55224609 298.83178711 C401.91337807 305.89067291 461.1886742 323.38397018 515.3515625 359.81640625 C516.14062988 360.3465332 516.92969727 360.87666016 517.74267578 361.42285156 C526.35658889 367.25566473 534.54440564 373.41030432 542.3828125 380.25 C545.10816304 382.60599382 547.89590551 384.83934523 550.7265625 387.06640625 C561.76415672 396.07075943 571.69953688 406.51748943 580.3515625 417.81640625 C581.09792969 418.76902344 581.84429688 419.72164062 582.61328125 420.703125 C588.07208513 427.7930825 592.79216631 435.13145113 597.3515625 442.81640625 C597.87514847 443.58748215 598.39873444 444.35855804 598.93818665 445.15299988 C600.53869893 448.16905156 600.71595536 449.95115528 600.69213867 453.34106445 C600.69179878 454.96217888 600.69179878 454.96217888 600.69145203 456.61604309 C600.66822624 458.34910957 600.66822624 458.34910957 600.64453125 460.1171875 C600.64028641 461.30869919 600.63604156 462.50021088 600.63166809 463.72782898 C600.61489343 467.52841921 600.57724209 471.32847663 600.5390625 475.12890625 C600.52401416 477.70767463 600.51032601 480.28645133 600.49804688 482.86523438 C600.46499377 489.18247305 600.41480569 495.49940158 600.3515625 501.81640625 C599.24885566 500.88389682 598.14798016 499.9492216 597.04785156 499.01367188 C596.12797455 498.23328552 596.12797455 498.23328552 595.18951416 497.43713379 C592.31003369 494.89797381 589.70031507 492.13838189 587.1015625 489.31640625 C586.54291504 488.71256104 585.98426758 488.10871582 585.40869141 487.48657227 C581.16073507 482.83430689 577.22108737 477.99534091 573.38037109 473.00463867 C569.06220691 467.39354037 564.49741175 462.0225138 559.88427734 456.65234375 C558.76155573 455.30750996 557.66663491 453.93933475 556.58837891 452.55859375 C550.0319717 444.24787506 542.67666693 436.83728673 535.17773438 429.38183594 C532.9807341 427.19555749 530.79463572 424.99878687 528.609375 422.80078125 C521.156621 415.34100705 513.64602043 408.3367916 505.3515625 401.81640625 C504.17498282 400.81076943 503.00587575 399.79626039 501.84765625 398.76953125 C469.0004504 369.68425912 423.55108456 340.93471718 379.3515625 334.81640625 C378.43632813 334.6875 377.52109375 334.55859375 376.578125 334.42578125 C373.49712298 334.09031398 370.4492999 333.9296126 367.3515625 333.81640625 C366.28059326 333.77555908 366.28059326 333.77555908 365.18798828 333.73388672 C352.16708129 333.31180227 339.36775222 334.15560035 326.4140625 335.31640625 C309.33494425 336.83939606 292.49187814 337.22376293 275.3515625 336.81640625 C274.33078613 336.79562012 273.31000977 336.77483398 272.25830078 336.75341797 C235.9504175 335.91996035 200.46546323 330.10898123 168.19873047 312.79882812 C166.36755627 311.82491259 164.5215381 310.88750437 162.66796875 309.95703125 C143.37686852 300.15825556 125.92379367 287.21881333 110.16796875 272.44921875 C107.4920265 269.94771379 104.77540865 267.50146542 102.0390625 265.06640625 C95.27843594 258.97323009 89.35690356 252.71370915 83.65234375 245.609375 C81.57017803 243.08178843 79.40680992 240.70062567 77.1640625 238.31640625 C66.57373228 226.66889771 57.45351589 213.29693552 49.3515625 199.81640625 C48.98756348 199.21328613 48.62356445 198.61016602 48.24853516 197.98876953 C32.8865474 172.27457174 23.66174182 143.99032694 15.24462891 115.40234375 C12.74570938 106.97097601 9.9734031 98.84966441 6.3515625 90.81640625 C5.91239502 89.82145142 5.91239502 89.82145142 5.46435547 88.80639648 C-4.00324709 67.80181858 -19.75158135 47.54246684 -41.6484375 38.81640625 C-64.46343755 31.78691975 -86.71059935 39.29000583 -107.1015625 49.5546875 C-132.50490508 63.3492933 -155.59181942 83.75013089 -170.375 108.734375 C-171.00535156 109.76498047 -171.00535156 109.76498047 -171.6484375 110.81640625 C-171.9784375 110.81640625 -172.3084375 110.81640625 -172.6484375 110.81640625 C-173.02322138 96.01329864 -173.30482919 81.2108233 -173.47743225 66.4039259 C-173.5597315 59.52751211 -173.67177472 52.65405534 -173.85546875 45.77954102 C-174.03279601 39.1400942 -174.12508363 32.50290123 -174.16647339 25.86098671 C-174.19595007 23.33248974 -174.25352101 20.80415353 -174.34011841 18.276968 C-174.97279617 -0.95857113 -174.97279617 -0.95857113 -171.1255188 -6.29662704 C-167.4675406 -9.8151965 -163.3524746 -12.15423766 -158.74901009 -14.22859669 C-156.5716611 -15.21849911 -154.50472755 -16.32862431 -152.41867065 -17.49765015 C-103.45938649 -44.90937013 -42.3258182 -34.8969504 0 0 Z " fill="#E3FCF9" transform="translate(172.6484375,557.18359375)"/>
<path d="M0 0 C10.02142214 8.81650041 18.38858686 18.15555794 25.6640625 29.34375 C26.09396484 29.99375977 26.52386719 30.64376953 26.96679688 31.31347656 C53.73298554 72.08795521 59.9477668 113.5464556 62.57446289 161.17456055 C64.46378659 194.86180328 69.84940075 222.58388373 94.9140625 246.53125 C122.87347669 270.91719974 165.50725041 289.39283163 203.06152344 287.5390625 C219.71126099 286.28955124 235.94910997 282.93824728 251.6640625 277.34375 C252.44845703 277.0657959 253.23285156 276.7878418 254.04101562 276.50146484 C271.911756 270.03190614 288.75949667 261.13471574 305.48339844 252.17382812 C334.60540349 236.58604975 364.9104419 229.41484463 397.25 239.11303711 C418.17045498 245.84799722 435.57275204 258.96564309 451.43457031 273.7800293 C459.69536716 281.48757771 467.15887008 287.61296175 478.9765625 287.65625 C480.02457031 287.67300781 481.07257812 287.68976563 482.15234375 287.70703125 C486.67859371 287.36712369 486.67859371 287.36712369 494.6640625 284.34375 C494.6640625 315.69375 494.6640625 347.04375 494.6640625 379.34375 C491.97940207 376.65908957 490.72352474 374.87255343 489.02734375 371.58203125 C488.29100708 370.16241089 488.29100708 370.16241089 487.53979492 368.71411133 C487.02392822 367.70501709 486.50806152 366.69592285 485.9765625 365.65625 C485.44200439 364.62201904 484.90744629 363.58778809 484.35668945 362.5222168 C481.63509013 357.24243698 478.95326655 351.94459858 476.32177734 346.61938477 C460.38376633 314.37037959 436.71924876 291.89865738 402.6640625 279.34375 C362.68057428 267.10000241 323.20433089 286.52080185 287.40673828 302.95922852 C285.99257182 303.60836379 284.57834645 304.25737075 283.1640625 304.90625 C282.46537048 305.22681366 281.76667847 305.54737732 281.04681396 305.87765503 C262.13901138 314.53349794 242.96344539 322.58538944 222.6640625 327.34375 C221.42527344 327.66085937 220.18648438 327.97796875 218.91015625 328.3046875 C177.7081224 337.36830342 133.6701953 324.96162758 98.4609375 303.21875 C90.08743833 297.83187865 82.14042363 291.9238554 74.6640625 285.34375 C73.68050781 284.49296875 72.69695312 283.6421875 71.68359375 282.765625 C30.14016756 246.24038093 18.83224726 188.40021479 10.68359375 136.10546875 C6.12085508 106.96859169 -1.19432729 78.770933 -21.3359375 56.34375 C-21.95984375 55.63734375 -22.58375 54.9309375 -23.2265625 54.203125 C-37.77159607 38.68027405 -58.32034352 29.73872623 -79.46899414 28.99389648 C-97.41583129 28.77422634 -112.18535761 35.61400823 -124.9375 47.9921875 C-125.72898438 48.76820313 -126.52046875 49.54421875 -127.3359375 50.34375 C-128.59894286 51.41554339 -129.86928379 52.47878176 -131.1484375 53.53125 C-135.11701469 56.96309339 -138.6011159 60.80106377 -142.1484375 64.65625 C-168.50583063 93.19323703 -203.01970201 113.6272351 -242.61816406 115.44873047 C-254.9262648 115.84970259 -266.56288843 115.26809969 -278.3359375 111.34375 C-278.3359375 102.10375 -278.3359375 92.86375 -278.3359375 83.34375 C-274.3759375 84.00375 -270.4159375 84.66375 -266.3359375 85.34375 C-239.74566244 89.76121263 -213.06433127 83.55781177 -190.3359375 69.34375 C-186.45277881 66.56277564 -182.88556102 63.5358202 -179.3359375 60.34375 C-178.36011719 59.4878125 -177.38429688 58.631875 -176.37890625 57.75 C-170.72214847 52.72955919 -165.47428636 47.45684026 -160.41674805 41.8359375 C-157.24451944 38.31314532 -153.99621933 34.88780944 -150.6484375 31.53125 C-149.81957031 30.69980469 -148.99070313 29.86835938 -148.13671875 29.01171875 C-105.61321368 -11.49533001 -52.54179625 -43.36783182 0 0 Z " fill="#E3FCF9" transform="translate(278.3359375,205.65625)"/>
<path d="M0 0 C1.05185989 -0.00101212 1.05185989 -0.00101212 2.12496948 -0.00204468 C16.98553156 0.02040108 31.58332688 1.25255741 46.3125 3.25 C48.17358398 3.49943359 48.17358398 3.49943359 50.07226562 3.75390625 C100.95277181 10.78088153 147.98740587 26.72625608 190.3125 56.25 C190.94913574 56.69230957 191.58577148 57.13461914 192.24169922 57.59033203 C204.89441435 66.41213262 216.98724602 75.82168433 228.69189453 85.86328125 C230.83181822 87.69436991 232.9841171 89.51055443 235.13696289 91.32641602 C237.86626925 93.62941025 240.58921765 95.93988891 243.3125 98.25 C243.88645508 98.7361377 244.46041016 99.22227539 245.05175781 99.72314453 C252.37281913 105.93048282 259.56882041 112.2358714 266.59375 118.77734375 C268.51736104 120.52683482 270.43972611 122.19344708 272.44921875 123.8359375 C274.76269667 125.78645504 276.69060124 127.6332162 278.625 129.9375 C281.20079479 132.9698361 283.85009952 135.90186705 286.5625 138.8125 C287.27277344 139.64023926 287.98304688 140.46797852 288.71484375 141.32080078 C291.26006937 144.29042201 291.26006937 144.29042201 294.15844727 146.86914062 C302.94891164 155.74214023 303.41014258 165.44313101 303.38143539 177.34230232 C303.34175654 181.85559469 303.21427512 186.36415308 303.06781006 190.87506104 C302.95398961 194.75653304 302.90477407 198.63881428 302.84960938 202.52148438 C302.73266661 210.09984148 302.54569595 217.67423216 302.3125 225.25 C295.79455124 222.18916033 291.56240721 216.34644927 286.8359375 211.0546875 C284.64953422 208.6245984 282.43760098 206.22106894 280.21386719 203.82519531 C275.52623815 198.76516926 271.07432052 193.58290657 266.73828125 188.21484375 C250.08635127 167.86248488 232.1274021 148.41612441 211.3125 132.25 C210.58321289 131.68055664 209.85392578 131.11111328 209.10253906 130.52441406 C198.24855549 122.07384322 187.23209666 113.97030803 175.8046875 106.3125 C172.46907753 104.07027021 169.22524868 101.7274017 165.9921875 99.33984375 C160.3494902 95.21297791 154.51014004 91.48152063 148.5625 87.8125 C147.50828857 87.15854248 146.45407715 86.50458496 145.36791992 85.83081055 C142.35319095 83.96437365 139.33420035 82.10512458 136.3125 80.25 C135.57918457 79.79947266 134.84586914 79.34894531 134.09033203 78.88476562 C122.98176721 72.08417699 111.66504683 65.6327141 100.3125 59.25 C99.5999707 58.8482959 98.88744141 58.4465918 98.15332031 58.03271484 C68.86026727 41.61738836 33.61600956 31.62810994 0.3125 40.25 C-18.63190985 46.0442772 -33.49454589 57.6620468 -43.25390625 75.0390625 C-52.52357372 94.24249302 -50.85086111 113.21280555 -44.5078125 132.9140625 C-38.44019904 149.10633274 -29.97701899 165.34084785 -19.6875 179.25 C-18.93210937 180.27609375 -18.17671875 181.3021875 -17.3984375 182.359375 C-9.32127462 193.15598468 -0.68201215 203.6763936 9.08203125 212.9921875 C10.95441958 214.8875298 12.67119588 216.81554624 14.40063477 218.83813477 C18.44157083 223.47065616 22.75575079 227.78481588 27.1328125 232.09765625 C28.8191443 233.7713495 30.5053381 235.44518178 32.19140625 237.11914062 C34.82050189 239.72339635 37.45118308 242.32601018 40.08447266 244.92602539 C42.64669916 247.45795932 45.2025949 249.99615184 47.7578125 252.53515625 C48.54125031 253.30513443 49.32468811 254.07511261 50.13186646 254.86842346 C54.36604152 259.08320858 58.00241762 263.27254072 61.3125 268.25 C52.61027469 268.53050663 43.90964994 268.7424664 35.20385838 268.87174606 C31.1592429 268.93386075 27.11776219 269.01778814 23.07495117 269.15527344 C-9.87175022 270.24633178 -9.87175022 270.24633178 -21.54150391 259.40405273 C-22.31624054 258.62070557 -22.31624054 258.62070557 -23.10662842 257.8215332 C-25.28162594 255.65938363 -27.64622417 253.77146361 -30.03512573 251.85264587 C-32.65370985 249.72772595 -35.16150518 247.48401155 -37.6875 245.25 C-38.5228125 244.52554687 -39.358125 243.80109375 -40.21875 243.0546875 C-51.31019985 233.29565208 -61.57028465 222.87798034 -70.6875 211.25 C-71.63953486 210.08528009 -72.59411713 208.92263933 -73.55078125 207.76171875 C-100.5620283 174.8340521 -117.27435703 139.64468476 -114.6875 96.25 C-113.98732679 90.07206382 -112.57239698 84.16643917 -110.6875 78.25 C-110.32527344 77.11046875 -109.96304687 75.9709375 -109.58984375 74.796875 C-99.38412103 46.15166006 -78.90917022 23.80634818 -51.6875 10.25 C-35.10878346 2.39439989 -18.19117296 0.01583405 0 0 Z " fill="#E3FCF9" transform="translate(470.6875,1011.75)"/>
<path d="M0 0 C21.57302104 18.72701041 32.7837797 41.36104789 36.1875 69.625 C36.82405227 79.97409477 36.56703376 90.35229722 36.35595703 100.71264648 C36.22665494 107.14651524 36.13175947 113.58075677 36.0703125 120.015625 C36.06353045 120.7003998 36.05674839 121.3851746 36.04976082 122.09070015 C35.84704977 148.36969697 40.25631572 175.79322081 59.0234375 195.55859375 C69.45070963 205.4538622 83.8620943 208.72527495 97.8125 209.6875 C98.79033447 209.76492432 99.76816895 209.84234863 100.77563477 209.92211914 C104.99045355 210.25322381 109.20711247 210.55548995 113.42431641 210.85449219 C144.5445283 213.06968673 172.91921862 218.01487096 195.1875 241.625 C201.2851675 248.70646164 205.85399762 255.90088969 209.1875 264.625 C209.54457031 265.511875 209.90164063 266.39875 210.26953125 267.3125 C213.66079863 276.45749069 214.91527067 286.00072354 216.1875 295.625 C216.36458496 296.77935547 216.54166992 297.93371094 216.72412109 299.12304688 C217.42474143 304.79459049 217.27192969 310.46710135 217.21484375 316.171875 C217.20218197 318.65234228 217.18982218 321.13281111 217.17773438 323.61328125 C217.15311733 327.47645066 217.1253099 331.33953599 217.09155273 335.20263672 C217.06081556 338.96322064 217.0434053 342.72370334 217.02734375 346.484375 C217.01388412 347.60285828 217.0004245 348.72134155 216.98655701 349.87371826 C216.95478538 360.34765342 218.1259951 370.00995101 219.1875 380.625 C192.4575 380.625 165.7275 380.625 138.1875 380.625 C139.35454618 375.37329221 140.45536558 370.45238975 142.02734375 365.3671875 C142.36701172 364.25472656 142.70667969 363.14226562 143.05664062 361.99609375 C143.40919922 360.84238281 143.76175781 359.68867187 144.125 358.5 C150.6094096 336.77664577 156.37312161 314.01604052 145.3125 292.75 C137.99137411 280.31119387 127.02275279 271.93333343 113.1875 267.625 C110.60708285 267.05482623 108.05700318 266.53533454 105.45703125 266.08203125 C104.72171173 265.9532811 103.98639221 265.82453094 103.22879028 265.69187927 C93.94367885 264.14934262 84.57907325 263.61338228 75.19335938 263.04370117 C54.22699289 261.73871366 34.38226829 257.18023069 19.54394531 241.18896484 C-4.50954666 213.45558299 -0.8982459 170.0949254 0.6875 136 C2.14044395 104.75009179 -0.01712142 73.26325404 -21.8125 48.625 C-26.84093024 43.90587566 -32.40129003 40.17531557 -38.8125 37.625 C-39.56402344 37.3259375 -40.31554687 37.026875 -41.08984375 36.71875 C-57.93074866 31.1137647 -75.41013274 34.78341304 -90.9375 42.3125 C-102.52143178 48.22593705 -111.92805333 56.41618983 -121.29296875 65.31640625 C-123.8125 67.625 -123.8125 67.625 -124.8125 67.625 C-125.11463489 58.39352221 -125.34513701 49.16376151 -125.48605824 39.92840672 C-125.55372235 35.6390448 -125.6453501 31.35307993 -125.79321289 27.06567383 C-125.9352089 22.9221146 -126.01233284 18.781805 -126.04590416 14.63599968 C-126.06980031 13.06037137 -126.11647673 11.48490799 -126.18699074 9.91067696 C-126.70109645 -2.05016863 -126.70109645 -2.05016863 -123.56310654 -5.91298294 C-120.04487678 -9.10080841 -116.05590139 -11.26514783 -111.8125 -13.375 C-110.82123611 -13.89070053 -109.82997223 -14.40640106 -108.80867004 -14.93772888 C-73.01885393 -32.856812 -30.02518423 -25.08965889 0 0 Z " fill="#E3FCF9" transform="translate(124.8125,899.375)"/>
<path d="M0 0 C25.08 0 50.16 0 76 0 C73.76536497 10.05585764 73.76536497 10.05585764 72.59765625 14.0234375 C67.54798718 31.57238443 64.49816175 48.73822062 64 67 C63.97808594 67.71526855 63.95617187 68.43053711 63.93359375 69.16748047 C62.77855637 112.60651115 69.09563091 157.75414134 98.859375 191.08203125 C124.15424054 217.62002052 161.98103658 234.43795161 198 239 C198.80308594 239.11085937 199.60617187 239.22171875 200.43359375 239.3359375 C237.15255255 243.57494366 275.13224663 235.43727262 311.21606445 229.37426758 C343.82030452 223.92454518 377.43895308 223.87149325 408 238 C409.79988399 239.79988399 409.11993004 242.24999876 409.12442017 244.64555359 C409.12082489 245.45547256 409.11722961 246.26539154 409.11352539 247.09985352 C409.11367142 247.94856018 409.11381744 248.79726685 409.1139679 249.67169189 C409.11326848 252.49078891 409.10547478 255.30982071 409.09765625 258.12890625 C409.09579217 260.07803817 409.09436822 262.02717055 409.09336853 263.9763031 C409.08954255 269.11706832 409.07971159 274.25780547 409.06866455 279.39855957 C409.05845215 284.64005148 409.05387128 289.8815479 409.04882812 295.12304688 C409.03808939 305.41537694 409.02101201 315.70768614 409 326 C407.73054725 325.05885847 406.46261467 324.11566627 405.1953125 323.17163086 C404.48906738 322.64661484 403.78282227 322.12159882 403.05517578 321.58067322 C400.2061154 319.38940886 397.62494249 317.01981709 395 314.5625 C391.76064908 311.53881239 388.50765602 308.56886372 385.14453125 305.68359375 C381.51126967 302.52185377 378.15533081 299.1574245 374.81103516 295.69433594 C368.0448652 288.70257512 361.74673606 282.43420313 353 278 C352.13503906 277.5359375 351.27007813 277.071875 350.37890625 276.59375 C338.81857451 270.82197334 326.58366701 269.4747916 313.8125 269.625 C312.54583496 269.63515137 311.27916992 269.64530273 309.97412109 269.65576172 C299.7323967 269.82387248 289.9822296 270.72090463 280 273 C278.7634668 273.28206299 278.7634668 273.28206299 277.50195312 273.56982422 C265.73181212 276.33629154 254.19230996 279.83595293 242.64599609 283.40036011 C232.28851577 286.5961259 221.9788478 289.70461076 211.375 292 C210.53130859 292.18312744 209.68761719 292.36625488 208.81835938 292.55493164 C196.16844969 295.14139528 183.73129277 296.3538971 170.84863281 296.31567383 C168.63296276 296.31251137 166.41863201 296.33610739 164.203125 296.36132812 C130.75393177 296.50984543 99.49292575 283.58470793 75 261 C74.11699219 260.18789063 73.23398437 259.37578125 72.32421875 258.5390625 C40.2112949 227.67469712 26.65694652 181.96166725 21.109375 139.00390625 C20.98058708 138.00832356 20.98058708 138.00832356 20.84919739 136.9926281 C19.47646839 126.32455005 18.28904267 115.64380046 17.21875 104.94140625 C17.14744118 104.22927979 17.07613235 103.51715332 17.00266266 102.78344727 C16.34950093 96.24339499 15.7073475 89.70227907 15.07275391 83.16040039 C11.91950239 49.97246388 11.91950239 49.97246388 4.875 17.4375 C4.62363281 16.50744141 4.37226563 15.57738281 4.11328125 14.61914062 C2.78667751 9.7329326 1.39100621 4.86852173 0 0 Z " fill="#E3FCF9" transform="translate(364,0)"/>
<path d="M0 0 C17.82 0 35.64 0 54 0 C51.36 5.28 48.72 10.56 46 16 C30.15385389 53.17749665 29.84489082 93.44502162 44.62890625 131.2734375 C53.04040232 151.80282704 66.2419751 168.33409709 87.00097656 177.24072266 C120.62356691 190.01139388 159.56270602 182.56967349 192.88232422 173.18847656 C199.24007657 171.39985058 205.60560019 169.65332909 212 168 C212.6909375 167.81775879 213.381875 167.63551758 214.09375 167.44775391 C230.96076947 163.17573915 250.20659741 164.03290102 267.41015625 165.49609375 C275.33286005 166.16453764 283.24052434 166.28359182 291.1875 166.3125 C291.95669769 166.31611542 292.72589539 166.31973083 293.5184021 166.32345581 C305.20061048 166.34549456 315.7575565 165.32072174 327 162 C328.98 161.67 330.96 161.34 333 161 C333 186.74 333 212.48 333 239 C327.72 237.02 322.44 235.04 317 233 C313.95715255 232.1429955 311.07518195 231.3644384 308 230.75 C307.25202148 230.5943457 306.50404297 230.43869141 305.73339844 230.27832031 C271.47631556 223.37480171 238.60522072 229.40759284 204.64916992 235.13085938 C149.60708059 244.37023073 93.65570156 244.36057303 45.82861328 211.32666016 C40.61030586 207.54077463 35.8060737 203.28757612 31 199 C30.26394531 198.38511719 29.52789062 197.77023438 28.76953125 197.13671875 C19.52754108 189.40738964 11.94712285 180.46987307 6 170 C5.48824219 169.11183594 4.97648437 168.22367188 4.44921875 167.30859375 C-16.42001322 128.53604134 -17.7904186 72.23933173 -8.75 30.125 C-8.56993408 29.28420898 -8.38986816 28.44341797 -8.2043457 27.57714844 C-6.02858565 18.18129337 -2.92179658 9.25235585 0 0 Z " fill="#A6DCDA" transform="translate(440,0)"/>
<path d="M0 0 C0.49338867 0.4345752 0.98677734 0.86915039 1.49511719 1.31689453 C15.7228265 13.88950813 27.72409297 27.75639969 39 43 C40.14549911 44.53410378 41.29133683 46.06795478 42.4375 47.6015625 C50.36091174 58.24362915 58.14247104 69.00014145 65.58300781 79.98681641 C67.08185027 82.18873548 67.08185027 82.18873548 69.3984375 84.76171875 C71.23045679 88.46597238 71.16517653 90.60797928 71.10009766 94.70239258 C71.08564606 95.87973465 71.07119446 97.05707672 71.05630493 98.27009583 C71.0377243 99.1709642 71.01914368 100.07183258 71 101 C51.23194153 101.18759457 31.46406581 101.32830192 11.69529915 101.41449738 C2.51449804 101.45559867 -6.66574727 101.51154729 -15.84619141 101.60351562 C-23.85590907 101.68371695 -31.8652239 101.73497441 -39.875332 101.75270796 C-44.10962492 101.76306049 -48.34276628 101.7870655 -52.57668686 101.84584045 C-86.32118627 102.29608998 -86.32118627 102.29608998 -101 93 C-102.13090057 92.32618286 -103.26180115 91.65236572 -104.42697144 90.95812988 C-121.70006698 80.35894209 -139.17990374 64.10436763 -150 47 C-150.62261719 46.03707031 -151.24523437 45.07414062 -151.88671875 44.08203125 C-160.94396452 29.40435624 -165.5531693 12.27177028 -161.92163086 -4.83496094 C-158.35946927 -19.84525958 -151.39944878 -33.13412584 -138.6875 -42.375 C-96.38601678 -68.43507605 -31.35345043 -28.00455248 0 0 Z " fill="#E3FCF9" transform="translate(702,1179)"/>
<path d="M0 0 C67.98 0 135.96 0 206 0 C202.76649425 3.23350575 199.61456213 6.26031737 196.1875 9.25 C182.02365757 22.01210323 173.18158993 37.4760243 164.04370117 53.9987793 C160.01238471 61.26553237 155.88264985 68.26566726 151 75 C150.3090625 75.97324219 149.618125 76.94648437 148.90625 77.94921875 C144.17828835 84.45016602 139.05930497 90.39815913 133.56640625 96.24609375 C131.41429903 98.55543255 129.3503428 100.90329633 127.3125 103.3125 C123.84915014 107.28109149 120.07880619 110.67399361 116 114 C115.08734375 114.75023438 114.1746875 115.50046875 113.234375 116.2734375 C99.67785527 127.07096704 84.72654132 135.76300754 69 143 C68.26168945 143.34160156 67.52337891 143.68320313 66.76269531 144.03515625 C44.71245783 154.1078311 24.4333648 158 0 158 C0 105.86 0 53.72 0 0 Z " fill="#A6DCDA" transform="translate(0,0)"/>
<path d="M0 0 C57.42 0 114.84 0 174 0 C152.24918711 45.91838276 121.46207468 78.14888705 73 96 C67.74274618 97.66821085 62.40756337 98.91726389 57 100 C56.09894531 100.19078125 55.19789063 100.3815625 54.26953125 100.578125 C37.79554432 102.70380073 20.882403 102.54047716 7 92.5625 C6.34 92.046875 5.68 91.53125 5 91 C4.16597656 90.37996094 3.33195313 89.75992188 2.47265625 89.12109375 C-6.26707996 81.62397407 -9.38227563 70.41457004 -11.75 59.5625 C-13.24336246 38.28208498 -8.61971952 19.39436892 0 0 Z " fill="#A6DCDA" transform="translate(576,0)"/>
<path d="M0 0 C7.37516176 7.07510164 11.64893315 16.0851035 14.5625 25.75 C14.73974609 26.33547607 14.91699219 26.92095215 15.09960938 27.52416992 C15.67956283 30.31290182 15.69228951 32.924481 15.6953125 35.7734375 C15.69724609 36.95172119 15.69917969 38.13000488 15.70117188 39.34399414 C15.69666016 40.59172607 15.69214844 41.83945801 15.6875 43.125 C15.68556641 44.40560303 15.68363281 45.68620605 15.68164062 47.00561523 C15.6494746 54.00753273 15.39408388 60.9126777 14.80078125 67.890625 C12.95669483 97.75877882 16.56042344 124.59713722 36.875 147.875 C44.56434874 156.07005633 52.38872573 162.58420066 62.0703125 168.21875 C63.30394531 168.97671875 63.30394531 168.97671875 64.5625 169.75 C64.5625 170.08 64.5625 170.41 64.5625 170.75 C29.2525 170.75 -6.0575 170.75 -42.4375 170.75 C-42.4375 112.01 -42.4375 53.27 -42.4375 -7.25 C-26.70856223 -13.99097333 -13.16439843 -10.56213362 0 0 Z " fill="#A6DCDA" transform="translate(42.4375,1109.25)"/>
<path d="M0 0 C18.28783529 8.37631337 33.93888417 27.65735673 41.8046875 45.70703125 C46.67153637 59.11472275 49.09008304 72.41722068 49.24609375 86.6484375 C49.27906723 88.72786824 49.31227821 90.80729522 49.34570312 92.88671875 C49.3927223 96.11569344 49.43712714 99.34465698 49.47680664 102.57373047 C49.90731334 146.18625889 49.90731334 146.18625889 71 183 C80.24426294 191.5308002 91.04577629 197.9726353 101.69433594 204.56542969 C125.07527141 219.11290712 125.07527141 219.11290712 131 228 C122.89752503 228.21010808 114.79621921 228.36922336 106.691679 228.46630955 C102.92676311 228.51294804 99.16373299 228.57601288 95.39990234 228.67895508 C65.16374025 229.48409915 65.16374025 229.48409915 55.36279297 221.32788086 C54.58307129 220.55968018 53.80334961 219.79147949 53 219 C51.76551024 218.00731291 50.52902795 217.01708889 49.2890625 216.03125 C46.49735797 213.37872136 43.72509943 210.72112699 41 208 C40.26007813 207.27167969 39.52015625 206.54335937 38.7578125 205.79296875 C19.4154439 185.50982347 15.29853625 158.8080941 15.90429688 131.96435547 C16.01119987 128.65308984 16.2140895 125.36308447 16.5 122.0625 C17.09670995 115.02666621 17.22445957 107.99494938 17.3125 100.9375 C17.35697266 99.17901733 17.35697266 99.17901733 17.40234375 97.38500977 C17.48711074 84.78916501 14.10192375 74.36022394 7 64 C6.13375 62.6696875 6.13375 62.6696875 5.25 61.3125 C-1.83804718 54.02756263 -11.11793413 48.45547577 -21.25 47.0625 C-28.28963261 46.76032866 -28.28963261 46.76032866 -40 50 C-40 32.84 -40 15.68 -40 -2 C-27.81599812 -6.87360075 -11.9457475 -4.96830959 0 0 Z " fill="#E3FCF9" transform="translate(40,1052)"/>
<path d="M0 0 C1.16097702 0.00022659 2.32195404 0.00045319 3.51811218 0.00068665 C4.77130753 0.0161705 6.02450287 0.03165436 7.31567383 0.04760742 C8.59879959 0.05185226 9.88192535 0.05609711 11.20393372 0.06047058 C14.61206645 0.07191455 18.01981448 0.10137722 21.42779541 0.13458252 C24.90664465 0.16529345 28.38555617 0.17897806 31.86450195 0.1940918 C38.68822751 0.22624782 45.51169781 0.27743841 52.33520508 0.34057617 C49.15161458 3.54566178 45.92679893 6.62093048 42.52270508 9.59057617 C28.35886265 22.3526794 19.51679501 37.81660047 10.37890625 54.33935547 C6.34758979 61.60610855 2.21785493 68.60624343 -2.66479492 75.34057617 C-3.35573242 76.31381836 -4.04666992 77.28706055 -4.75854492 78.28979492 C-9.48650657 84.79074219 -14.60548995 90.7387353 -20.09838867 96.58666992 C-22.25049589 98.89600872 -24.31445212 101.2438725 -26.35229492 103.65307617 C-29.81564478 107.62166766 -33.58598874 111.01456979 -37.66479492 114.34057617 C-38.57745117 115.09081055 -39.49010742 115.84104492 -40.43041992 116.61401367 C-53.98693965 127.41154321 -68.93825361 136.10358371 -84.66479492 143.34057617 C-85.40310547 143.68217773 -86.14141602 144.0237793 -86.90209961 144.37573242 C-108.95233709 154.44840727 -129.23143012 158.34057617 -153.66479492 158.34057617 C-153.66479492 144.15057617 -153.66479492 129.96057617 -153.66479492 115.34057617 C-149.04479492 116.00057617 -144.42479492 116.66057617 -139.66479492 117.34057617 C-107.45967021 119.65632929 -77.11575556 105.430052 -52.66479492 85.34057617 C-51.69670898 84.54522461 -50.72862305 83.74987305 -49.73120117 82.93041992 C-33.88979742 69.25907148 -28.37732005 52.74152536 -22.15139771 33.42208862 C-11.2940076 -0.0734968 -11.2940076 -0.0734968 0 0 Z " fill="#E3FCF9" transform="translate(153.664794921875,-0.340576171875)"/>
<path d="M0 0 C8.56874946 4.94171623 16.42410378 10.8128371 24.125 17 C24.72022461 17.47808105 25.31544922 17.95616211 25.92871094 18.44873047 C38.0248548 28.27473914 49.21626253 39.24766512 59.40356445 51.03564453 C62.18383927 54.2082571 65.09860892 57.25109676 68 60.3125 C72.82775403 65.4462026 77.4403028 70.66998201 81.83984375 76.1796875 C85.0642163 80.15916952 88.42108673 84.0212847 91.78955078 87.87915039 C94.41499277 90.91073073 96.90937785 93.99931344 99.3059082 97.21606445 C99.83666458 97.92737015 100.36742096 98.63867584 100.91426086 99.37153625 C101.51357674 100.17762581 101.51357674 100.17762581 102.125 101 C95.05035098 101.33398905 87.97777899 101.55901886 80.89697266 101.71411133 C78.49711194 101.77885519 76.09775079 101.86709357 73.69970703 101.98071289 C56.77420733 102.76161799 46.71808459 101.00497378 33.972229 89.59683228 C31.3780549 87.35430527 28.65442133 85.60477122 25.7421875 83.79296875 C24.79512939 83.19508545 23.84807129 82.59720215 22.87231445 81.98120117 C21.92445068 81.38927979 20.97658691 80.7973584 20 80.1875 C17.86481424 78.83502295 15.73072953 77.48080633 13.59765625 76.125 C12.53047363 75.44695312 11.46329102 74.76890625 10.36376953 74.0703125 C-46.63961197 37.63214914 -46.63961197 37.63214914 -52.875 15 C-53.17578125 11.96484375 -53.17578125 11.96484375 -53.1875 8.9375 C-53.20425781 7.93589844 -53.22101562 6.93429687 -53.23828125 5.90234375 C-52.67925633 1.43615543 -50.78366058 -1.14045621 -47.5625 -4.1875 C-33.71698489 -13.52517298 -13.27128576 -7.30137542 0 0 Z " fill="#A6DCDA" transform="translate(642.875,1179)"/>
<path d="M0 0 C37.95 0 75.9 0 115 0 C114.19402427 4.02987864 113.722604 5.88941814 111.77734375 9.22265625 C111.09925659 10.39260132 111.09925659 10.39260132 110.4074707 11.58618164 C109.92238037 12.4033667 109.43729004 13.22055176 108.9375 14.0625 C108.44016357 14.90868896 107.94282715 15.75487793 107.43041992 16.62670898 C101.30460563 26.97184923 94.76859812 36.79878968 87 46 C85.95199219 47.25103516 85.95199219 47.25103516 84.8828125 48.52734375 C75.12998358 59.78995223 61.70163974 71.98261334 46.02496338 73.14665222 C43.88281677 73.16440791 41.75054795 73.12098067 39.609375 73.0546875 C37.9961025 73.02938378 36.38282078 73.00466269 34.76953125 72.98046875 C32.26385655 72.93106935 29.75868259 72.87523265 27.25341797 72.80810547 C24.80954233 72.74690014 22.36628234 72.71191397 19.921875 72.6796875 C19.19127869 72.65276825 18.46068237 72.625849 17.70794678 72.59811401 C10.64623933 72.5315914 7.38534782 74.31441897 0 77 C0 51.59 0 26.18 0 0 Z " fill="#E3FCF9" transform="translate(0,0)"/>
<path d="M0 0 C10.72796703 6.39886104 18.46652645 15.24545993 25.375 25.5 C26.76054654 27.48638168 28.15630365 29.46568277 29.5625 31.4375 C30.17480469 32.31277344 30.78710938 33.18804688 31.41796875 34.08984375 C33.2260503 36.63716336 33.2260503 36.63716336 35.96679688 37.87426758 C39.95820748 42.22621618 38.98725946 47.24137473 38.86328125 52.921875 C38.85620651 54.13699768 38.84913177 55.35212036 38.84184265 56.60406494 C38.81384506 60.48666842 38.75109096 64.36783208 38.6875 68.25 C38.66242433 70.8814896 38.6396099 73.51300179 38.61914062 76.14453125 C38.5640004 82.59684576 38.48031815 89.04832003 38.375 95.5 C37.24570187 94.53835812 36.11729025 93.5756751 34.98925781 92.61254883 C34.36077942 92.0765657 33.73230103 91.54058258 33.08477783 90.98835754 C31.33549726 89.46561296 29.71365001 87.87653175 28.125 86.1875 C24.02619425 82.03428532 19.53422617 78.42686253 14.97753906 74.79052734 C13.28124282 73.42449719 11.60496032 72.03624622 9.9296875 70.64453125 C3.47472719 65.32214202 -3.09305584 60.35204881 -10.125 55.8125 C-10.82923096 55.35689697 -11.53346191 54.90129395 -12.2590332 54.43188477 C-15.73809132 52.2183016 -19.23814802 50.14205321 -22.89453125 48.234375 C-34.09303298 42.29950138 -34.09303298 42.29950138 -36.1875 35.75 C-36.41179688 34.74582031 -36.63609375 33.74164062 -36.8671875 32.70703125 C-38.00587434 27.88815551 -40.22553339 23.66344292 -42.35546875 19.21484375 C-44.50350036 14.62136076 -45.29464577 10.54147604 -44.625 5.5 C-42.01579795 0.07285974 -38.84780876 -1.9360757 -33.625 -4.5 C-23.10261211 -8.00746263 -9.63513477 -4.8036839 0 0 Z " fill="#A6DCDA" transform="translate(734.625,745.5)"/>
<path d="M0 0 C26.07 0 52.14 0 79 0 C75.74887339 8.12781652 73.08646457 13.32256363 68 20 C67.236875 21.051875 66.47375 22.10375 65.6875 23.1875 C52.37773237 37.11632659 35.80460379 38.65577355 17.58862305 39.53588867 C12.23526147 39.85274603 7.94600579 40.98806544 3 43 C1.515 43.495 1.515 43.495 0 44 C0 29.48 0 14.96 0 0 Z " fill="#A6DCDA" transform="translate(0,0)"/>
<path d="M0 0 C2.17044885 0.05524131 4.3410328 0.10542011 6.51171875 0.15039062 C11.80245089 0.27096161 17.08809198 0.45442787 22.375 0.6875 C19.5819388 3.52017483 16.79438736 6.27814131 13.73046875 8.81640625 C13.06168701 9.37070313 12.39290527 9.925 11.70385742 10.49609375 C-23.24793088 39.12380407 -23.24793088 39.12380407 -34.77734375 38.203125 C-36.625 37.6875 -36.625 37.6875 -39.1875 35.625 C-40.97564215 31.9709704 -40.91692504 29.73637345 -40.625 25.6875 C-39.4453125 22.328125 -39.4453125 22.328125 -37.75 18.9375 C-37.21632813 17.82890625 -36.68265625 16.7203125 -36.1328125 15.578125 C-35.3137527 14.27052517 -34.47493326 12.97524598 -33.625 11.6875 C-33.07763184 10.73705811 -32.53026367 9.78661621 -31.96630859 8.80737305 C-23.9199803 -2.67905213 -12.75422531 -0.56425204 0 0 Z " fill="#E3FCF9" transform="translate(653.625,-0.6875)"/>
<path d="M0 0 C6.27 0 12.54 0 19 0 C17.00651863 4.98370343 16.69547227 5.66188399 12.5 8.25 C11.7059375 8.75015625 10.911875 9.2503125 10.09375 9.765625 C5.95191229 12.20745469 5.64792022 12 0 12 C0 8.04 0 4.08 0 0 Z " fill="#E2FCF9" transform="translate(0,0)"/>
</svg>
