<svg width="28" height="28" viewBox="0 0 28 28" fill="none" xmlns="http://www.w3.org/2000/svg">
<path d="M26.5765 23.9235C26.9287 24.2757 27.1266 24.7534 27.1266 25.2516C27.1266 25.7497 26.9287 26.2275 26.5765 26.5797C26.2243 26.932 25.7465 27.1298 25.2484 27.1298C24.7502 27.1298 24.2725 26.932 23.9202 26.5797L13.9999 16.6563L4.07649 26.5766C3.72425 26.9288 3.24651 27.1267 2.74837 27.1267C2.25023 27.1267 1.77249 26.9288 1.42024 26.5766C1.068 26.2244 0.870117 25.7466 0.870117 25.2485C0.870117 24.7503 1.068 24.2726 1.42024 23.9203L11.3437 14L1.42337 4.07659C1.07113 3.72435 0.873242 3.24661 0.873242 2.74847C0.873242 2.25032 1.07113 1.77258 1.42337 1.42034C1.77561 1.0681 2.25335 0.870215 2.75149 0.870215C3.24964 0.870215 3.72738 1.0681 4.07962 1.42034L13.9999 11.3438L23.9234 1.41878C24.2756 1.06654 24.7533 0.868652 25.2515 0.868652C25.7496 0.868652 26.2274 1.06654 26.5796 1.41878C26.9319 1.77102 27.1297 2.24876 27.1297 2.7469C27.1297 3.24505 26.9319 3.72279 26.5796 4.07503L16.6562 14L26.5765 23.9235Z" fill="#141414"/>
</svg>