<svg width="191" height="81" viewBox="0 0 191 81" fill="none" xmlns="http://www.w3.org/2000/svg">
<path d="M61.361 78.5712H62.3624L62.361 77.5699L62.2623 3.32015L62.261 2.32148H61.2623H39.4485H38.659L38.4758 3.08941L31.438 32.5874L25.127 3.11211L24.9577 2.32148H24.1491H2.23657H1.23657V3.32148V77.5712V78.5712H2.23657H16.3514H17.3514V77.5712V38.6425L27.425 77.8202L27.6181 78.5712H28.3935H35.2041H35.9812L36.1731 77.8182L46.1475 38.6891V77.5712V78.5712H47.1475H61.361ZM66.5213 7.63317L66.5168 7.6412C63.8042 12.5139 62.7384 17.0966 62.7384 40.3973C62.7384 63.6837 63.8018 68.4766 66.519 73.2554C67.92 75.7701 69.862 77.4504 72.7157 78.4755C75.5124 79.4802 79.1594 79.8463 83.973 79.8463C88.7381 79.8463 92.3607 79.4801 95.1454 78.475C97.9862 77.4497 99.9277 75.7695 101.328 73.2554C104.046 68.4766 105.109 63.6837 105.109 40.3973C105.109 17.0966 104.043 12.5139 101.331 7.64118L101.326 7.63319C99.9253 5.17055 97.9865 3.49315 95.1493 2.45585C92.3652 1.43797 88.7434 1.04639 83.973 1.04639C79.1541 1.04639 75.5079 1.43785 72.7118 2.45533C69.8617 3.49244 67.9223 5.17002 66.5213 7.63317ZM81.0611 19.4607L81.0707 19.435L81.0788 19.4088C81.2088 18.9888 81.3959 18.7609 81.7232 18.595C82.1166 18.3955 82.7905 18.2494 83.973 18.2494C85.1549 18.2494 85.8004 18.3955 86.1784 18.5912C86.4919 18.7534 86.6974 18.9881 86.8791 19.4463C87.1326 20.2529 87.3454 21.2917 87.4901 24.1656C87.6367 27.0801 87.7109 31.8142 87.7109 40.005C87.7109 55.8534 87.4084 58.3951 86.8766 60.1774C86.7016 60.6154 86.5083 60.8197 86.2082 60.9626C85.8256 61.1448 85.1736 61.2701 83.973 61.2701C82.7721 61.2701 82.0918 61.1449 81.6937 60.9592C81.3776 60.8118 81.2041 60.6134 81.0788 60.2088L81.0731 60.1904L81.0667 60.1723C80.767 59.3213 80.5276 58.2771 80.3694 55.4224C80.2107 52.5601 80.1365 47.9515 80.1365 40.005C80.1365 31.813 80.2107 27.0815 80.3694 24.1698C80.528 21.2611 80.7679 20.2516 81.0611 19.4607ZM140.84 27.3713H141.571L141.793 26.6741C142.435 24.654 142.629 22.4624 142.629 18.4264C142.629 12.0703 141.44 7.5994 138.258 4.77995C135.112 1.99209 130.261 1.04639 123.566 1.04639C116.184 1.04639 111.381 2.19643 108.515 5.45621C105.685 8.67574 104.997 13.6917 104.997 20.6324V20.6501L104.997 20.6678C105.04 21.8868 105.073 23.0566 105.103 24.1771C105.191 27.3903 105.268 30.1977 105.563 32.5944C105.963 35.8543 106.781 38.554 108.711 40.6776L108.746 40.7154L108.784 40.7495C110.932 42.676 113.626 44.0046 116.288 45.2291C116.656 45.3985 117.024 45.5658 117.39 45.7325C119.711 46.7899 121.974 47.8205 123.989 49.1676C125.28 50.0712 126.064 50.7985 126.556 51.6754C127.044 52.5462 127.304 53.6776 127.304 55.5023C127.304 57.0568 127.248 58.2568 127.114 59.1875C126.978 60.1238 126.773 60.7095 126.527 61.0884C126.113 61.7266 125.398 62.0547 123.467 62.0547C121.639 62.0547 120.906 61.6313 120.48 60.9056C120.228 60.4762 120.032 59.8551 119.905 58.9444C119.779 58.038 119.73 56.9089 119.73 55.5023C119.73 54.3874 119.736 53.64 119.897 52.9999L120.21 51.7533L118.925 51.7559L106.332 51.7812L105.394 51.7831L105.336 52.7202C104.997 58.2669 104.997 59.308 104.997 63.0547C104.997 68.9948 106.222 73.2971 109.286 76.0691C112.324 78.8168 116.94 79.8463 123.171 79.8463C130.787 79.8463 136.073 78.4982 139.371 74.5867C142.622 70.7315 143.715 64.6329 143.715 55.7965C143.715 49.5906 143.223 45.4944 142.122 42.5372C140.996 39.5118 139.256 37.745 136.971 36.1452L136.961 36.1378L136.95 36.1307C134.943 34.8008 132.915 33.9108 130.717 32.9466L130.675 32.9281C128.48 31.9657 126.072 30.9096 123.185 29.2363C121.983 28.5196 121.289 27.9679 120.845 27.188C120.393 26.3954 120.124 25.2307 120.124 23.1345C120.124 21.9979 120.168 21.1031 120.279 20.3945C120.39 19.6843 120.56 19.2297 120.766 18.9272C121.115 18.4138 121.772 18.0533 123.566 18.0533C125.359 18.0533 126.053 18.4132 126.426 18.9417C126.641 19.2462 126.82 19.7008 126.939 20.4058C127.057 21.1103 127.107 22.0018 127.107 23.1345C127.107 24.9056 127.106 25.3476 127.013 26.2711L126.902 27.3713H128.008H140.84ZM189 78.5712H190V77.5712V77.0808V76.9316L189.957 76.7889L177.812 36.9821L189.058 4.13583L189.112 3.97835V3.8119V3.32148V2.32148H188.112H171.825H171.096L170.873 3.01616L162.066 30.4832C162.066 30.4532 162.066 30.423 162.066 30.3927V3.32148V2.32148H161.066H145.175H144.175V3.32148V77.5712V78.5712H145.175H161.066H162.066V77.5712V49.7153V49.6784C162.066 49.3439 162.066 49.0037 162.065 48.6606L170.27 77.8419L170.475 78.5712H171.233H189Z" fill="white" stroke="#141414" stroke-width="2"/>
</svg>