<svg width="111" height="126" viewBox="0 0 111 126" fill="none" xmlns="http://www.w3.org/2000/svg">
<g clip-path="url(#clip0_2163_9573)">
<rect x="0.827637" y="7.11523" width="102" height="118.5" rx="24" transform="rotate(-4 0.827637 7.11523)" fill="#C4D39F"/>
<rect x="8.43218" y="13.7254" width="87.75" height="69.75" rx="22.875" transform="rotate(-4 8.43218 13.7254)" fill="url(#paint0_linear_2163_9573)"/>
<rect x="8.43218" y="13.7254" width="87.75" height="69.75" rx="22.875" transform="rotate(-4 8.43218 13.7254)" stroke="#141414" stroke-width="2.25"/>
<path d="M68.5045 30.3173L38.1694 44.423C38.1513 44.4313 38.1339 44.441 38.1174 44.452C37.8745 44.6112 36.1852 45.8014 38.7393 46.5839L38.7655 46.5914L46.3531 48.4433C46.411 48.4575 46.4714 48.4591 46.53 48.4478C46.5886 48.4366 46.644 48.4128 46.6924 48.3782L64.3068 35.7344C64.3499 35.7034 64.3989 35.6812 64.4508 35.6689C64.704 35.6091 65.4359 35.4792 65.0103 36.0973C64.5291 36.7989 52.7345 48.8193 51.4254 50.1525C51.3499 50.2295 51.3071 50.3322 51.3056 50.4394L51.1986 57.6604C51.2036 57.7335 51.2258 57.8044 51.2634 57.8675C51.301 57.9306 51.353 57.9842 51.4152 58.0239C51.5027 58.0703 51.6031 58.0876 51.7015 58.0733C51.7998 58.059 51.891 58.0137 51.9615 57.9443L56.0987 53.739C56.164 53.6726 56.2504 53.6303 56.3433 53.619C56.4363 53.6078 56.5303 53.6283 56.6098 53.6772L64.6894 58.6626L64.7155 58.6775C64.9096 58.7781 67.0018 59.7947 67.4019 57.1698L70.9664 31.8303C70.9682 31.7507 70.9794 30.8763 70.3149 30.4065C69.6173 29.9156 68.7019 30.2521 68.5634 30.2912C68.5431 30.2983 68.5234 30.3071 68.5045 30.3173Z" fill="#141414"/>
<path d="M29.5571 106.854L26.738 107.051L25.9884 96.3313L23.8516 96.4807L23.6507 93.6078L30.7434 93.1118L30.9443 95.9848L28.8075 96.1342L29.5571 106.854ZM39.0721 106.189L33.0747 106.608L32.1242 93.0152L38.1395 92.5946L38.3404 95.4676L35.1442 95.6911L35.3112 98.0793L38.4536 97.8595L38.6457 100.607L35.5033 100.827L35.6829 103.394L38.8611 103.172L39.0721 106.189ZM46.4958 105.67L40.7678 106.07L39.8173 92.4773L42.6364 92.2801L43.376 102.856L46.2849 102.653L46.4958 105.67ZM53.8796 105.153L47.8822 105.573L46.9317 91.9798L52.947 91.5592L53.1479 94.4321L49.9518 94.6556L50.1187 97.0438L53.2611 96.8241L53.4532 99.5714L50.3109 99.7911L50.4904 102.359L53.6687 102.137L53.8796 105.153ZM59.7776 100.103L59.7324 99.4571L58.4216 99.5487L58.2307 96.8194L62.0733 96.5507C62.1239 97.0163 62.2085 97.9667 62.2963 99.2237C62.5048 102.204 62.3408 102.956 61.978 103.703C61.5702 104.579 60.781 104.905 59.0572 105.026C57.3154 105.148 56.4886 104.935 55.9627 104.123C55.4381 103.33 55.1828 102.518 54.8764 98.1366C54.5826 93.9349 54.7236 93.113 55.1327 92.2544C55.5431 91.4137 56.3682 91.0854 58.074 90.9661C60.0492 90.828 61.0156 91.2295 61.496 92.4229C61.694 92.9323 61.8123 93.5917 61.8688 94.3997C61.8927 94.7409 61.9014 94.8666 61.8998 95.1013L59.2782 95.2846C59.2912 95.2115 59.2849 95.1217 59.2799 95.0499C59.2384 94.4574 59.167 94.2097 59.1005 94.0339C59.0304 93.8043 58.7714 93.7141 58.2507 93.7505C57.7659 93.7844 57.5759 93.906 57.5024 94.1457C57.4198 94.5123 57.3973 94.965 57.6033 97.9098C57.8205 101.016 57.8815 101.373 58.0118 101.689C58.1397 101.968 58.4345 102.056 58.9014 102.023C59.3682 101.991 59.5582 101.869 59.6855 101.626C59.8296 101.363 59.8529 101.181 59.7776 100.103ZM71.6321 103.912L68.6334 104.122C68.4583 103.683 68.3856 103.417 67.8068 100.3C67.5932 99.0517 67.419 98.8835 67.0599 98.9086L66.629 98.9387L66.9994 104.236L64.1803 104.433L63.2298 90.8401L67.3417 90.5526C69.7837 90.3818 70.485 91.3793 70.6684 94.0009C70.8642 96.8021 70.483 97.0272 69.7423 97.5301L69.7498 97.6379C69.9023 97.7535 70.0714 97.8499 70.2197 98.1644C70.4473 98.5815 70.7014 99.3757 71.0094 100.942C71.4332 103.132 71.4725 103.436 71.6258 103.822L71.6321 103.912ZM66.4519 96.4069L67.242 96.3517C67.7627 96.3153 67.9351 95.9423 67.8472 94.6854C67.7719 93.608 67.5196 93.355 66.963 93.3939L66.2447 93.4441L66.4519 96.4069ZM80.1776 103.314L77.2687 103.518L76.8156 100.392L75.4509 100.487L75.4552 103.645L72.6181 103.843L73.122 90.1484L77.8625 89.8169L80.1776 103.314ZM76.4978 97.6532L75.6906 92.8197L75.4931 92.8335L75.3845 97.731L76.4978 97.6532ZM92.2677 102.469L89.6821 102.65L89.112 94.4976L89.0043 94.5051L87.5094 102.802L86.2704 102.888L83.6174 94.8818L83.5097 94.8893L84.0797 103.041L81.512 103.221L80.5615 89.6282L84.5478 89.3494L86.2178 95.1691L86.3435 95.1603L87.331 89.1548L91.2993 88.8773L92.2677 102.469Z" fill="#141414"/>
</g>
<rect x="1.62813" y="7.81109" width="100.5" height="117" rx="23.25" transform="rotate(-4 1.62813 7.81109)" stroke="#141414" stroke-width="1.5"/>
<defs>
<linearGradient id="paint0_linear_2163_9573" x1="-7.76856" y1="12.6816" x2="144.605" y2="34.9281" gradientUnits="userSpaceOnUse">
<stop stop-color="#FFFF7D"/>
<stop offset="0.545" stop-color="#E0B5FC"/>
<stop offset="0.89" stop-color="#FF4C9D"/>
</linearGradient>
<clipPath id="clip0_2163_9573">
<rect x="0.827637" y="7.11523" width="102" height="118.5" rx="24" transform="rotate(-4 0.827637 7.11523)" fill="white"/>
</clipPath>
</defs>
</svg>