<svg width="36" height="30" viewBox="0 0 36 30" fill="none" xmlns="http://www.w3.org/2000/svg">
<path d="M33.541 0.122592L0.937388 12.707C0.91799 12.7145 0.899185 12.7234 0.881136 12.7337C0.616752 12.8831 -1.22831 14.0088 1.37334 15.018L1.40006 15.0278L9.16353 17.5296C9.22276 17.5488 9.28548 17.5548 9.3473 17.5473C9.40913 17.5398 9.46855 17.5189 9.52143 17.4861L28.7772 5.5027C28.8244 5.47331 28.877 5.45353 28.9319 5.44449C29.1998 5.4003 29.9711 5.31754 29.4831 5.93544C28.9312 6.6368 15.7788 18.3929 14.319 19.6968C14.2348 19.7721 14.1828 19.8768 14.1735 19.9892L13.5364 27.5639C13.5363 27.641 13.5543 27.7171 13.5888 27.7862C13.6234 27.8552 13.6735 27.9152 13.7354 27.9616C13.8232 28.0167 13.9264 28.0422 14.0298 28.0344C14.1333 28.0266 14.2315 27.9858 14.3099 27.9181L18.9225 23.806C18.9954 23.7411 19.0884 23.703 19.186 23.698C19.2836 23.693 19.3799 23.7215 19.459 23.7787L27.5066 29.6069L27.5326 29.6245C27.7274 29.7444 29.8312 30.9655 30.4387 28.2386L35.9936 1.89212C36.0013 1.80865 36.0766 0.891279 35.4191 0.34913C34.7286 -0.217566 33.7513 0.0685872 33.6043 0.0994469C33.5826 0.105466 33.5615 0.113206 33.541 0.122592Z" fill="#141414"/>
</svg>
