<svg width="112" height="32" viewBox="0 0 112 32" fill="none" xmlns="http://www.w3.org/2000/svg">
<rect x="1" y="1" width="30" height="30" rx="11" fill="url(#paint0_linear_2163_9587)"/>
<rect x="1" y="1" width="30" height="30" rx="11" stroke="#141414" stroke-width="2"/>
<path d="M22.2882 11.0385C22.4644 10.8624 22.5633 10.6235 22.5633 10.3744C22.5633 10.1254 22.4644 9.88651 22.2882 9.71039C22.1121 9.53427 21.8733 9.43532 21.6242 9.43532C21.3751 9.43532 21.1362 9.53427 20.9601 9.71039L16 14.6721L11.0382 9.71195C10.8621 9.53583 10.6233 9.43688 10.3742 9.43688C10.1251 9.43688 9.88624 9.53583 9.71012 9.71195C9.534 9.88807 9.43506 10.1269 9.43506 10.376C9.43506 10.6251 9.534 10.864 9.71012 11.0401L14.6718 16.0002L9.71168 20.9619C9.53556 21.1381 9.43662 21.3769 9.43662 21.626C9.43662 21.8751 9.53556 22.114 9.71168 22.2901C9.8878 22.4662 10.1267 22.5651 10.3757 22.5651C10.6248 22.5651 10.8637 22.4662 11.0398 22.2901L16 17.3284L20.9617 22.2909C21.1378 22.467 21.3767 22.5659 21.6257 22.5659C21.8748 22.5659 22.1137 22.467 22.2898 22.2909C22.4659 22.1147 22.5649 21.8759 22.5649 21.6268C22.5649 21.3777 22.4659 21.1388 22.2898 20.9627L17.3281 16.0002L22.2882 11.0385Z" fill="#141414"/>
<rect x="41" y="1" width="30" height="30" rx="11" fill="url(#paint1_linear_2163_9587)"/>
<rect x="41" y="1" width="30" height="30" rx="11" stroke="#141414" stroke-width="2"/>
<path d="M61 15.1683H51C50.7789 15.1683 50.567 15.2561 50.4107 15.4124C50.2544 15.5687 50.1666 15.7806 50.1666 16.0016C50.1666 16.2226 50.2544 16.4346 50.4107 16.5909C50.567 16.7472 50.7789 16.835 51 16.835H61C61.221 16.835 61.4329 16.7472 61.5892 16.5909C61.7455 16.4346 61.8333 16.2226 61.8333 16.0016C61.8333 15.7806 61.7455 15.5687 61.5892 15.4124C61.4329 15.2561 61.221 15.1683 61 15.1683Z" fill="#141414"/>
<rect x="81" y="1" width="30" height="30" rx="11" fill="url(#paint2_linear_2163_9587)"/>
<rect x="81" y="1" width="30" height="30" rx="11" stroke="#141414" stroke-width="2"/>
<g clip-path="url(#clip0_2163_9587)">
<path d="M91.0222 9.77779H92.4444C92.6963 9.77779 92.9076 9.69245 93.0782 9.52179C93.2489 9.35112 93.3339 9.14016 93.3333 8.8889C93.3327 8.63764 93.2474 8.42638 93.0773 8.25512C92.9073 8.08386 92.6963 7.99883 92.4444 8.00001H88.8889C88.637 8.00001 88.4261 8.08535 88.256 8.25601C88.0859 8.42668 88.0006 8.63764 88 8.8889V12.4445C88 12.6963 88.0853 12.9073 88.256 13.0773C88.4267 13.2474 88.6376 13.3327 88.8889 13.3333C89.1401 13.3339 89.3514 13.2486 89.5227 13.0773C89.6939 12.9061 89.779 12.6951 89.7778 12.4445V11.0222L91.9111 13.1556C92.0741 13.3185 92.2815 13.4 92.5333 13.4C92.7852 13.4 92.9926 13.3185 93.1556 13.1556C93.3185 12.9926 93.4 12.7852 93.4 12.5333C93.4 12.2815 93.3185 12.0741 93.1556 11.9111L91.0222 9.77779ZM102.222 20.9778L100.089 18.8444C99.9259 18.6815 99.7185 18.6 99.4667 18.6C99.2148 18.6 99.0074 18.6815 98.8444 18.8444C98.6815 19.0074 98.6 19.2148 98.6 19.4667C98.6 19.7185 98.6815 19.9259 98.8444 20.0889L100.978 22.2222H99.5556C99.3037 22.2222 99.0927 22.3076 98.9227 22.4782C98.7526 22.6489 98.6673 22.8599 98.6667 23.1111C98.6661 23.3624 98.7514 23.5733 98.9227 23.744C99.0939 23.9147 99.3049 24 99.5556 24H103.111C103.363 24 103.574 23.9147 103.745 23.744C103.916 23.5733 104.001 23.3624 104 23.1111V19.5556C104 19.3037 103.915 19.0924 103.744 18.9218C103.573 18.7511 103.362 18.6661 103.111 18.6667C102.86 18.6673 102.649 18.7526 102.478 18.9227C102.308 19.0927 102.222 19.3037 102.222 19.5556V20.9778Z" fill="#141414"/>
</g>
<defs>
<linearGradient id="paint0_linear_2163_9587" x1="-5.33333" y1="4.10378e-06" x2="49.254" y2="6.37579" gradientUnits="userSpaceOnUse">
<stop stop-color="#E0B5FC"/>
<stop offset="0.49" stop-color="#FFD87D"/>
<stop offset="1" stop-color="#554CFF"/>
</linearGradient>
<linearGradient id="paint1_linear_2163_9587" x1="34.6667" y1="4.10378e-06" x2="89.254" y2="6.37579" gradientUnits="userSpaceOnUse">
<stop stop-color="#E0B5FC"/>
<stop offset="0.49" stop-color="#FFD87D"/>
<stop offset="1" stop-color="#554CFF"/>
</linearGradient>
<linearGradient id="paint2_linear_2163_9587" x1="74.6667" y1="4.10378e-06" x2="129.254" y2="6.37579" gradientUnits="userSpaceOnUse">
<stop stop-color="#E0B5FC"/>
<stop offset="0.49" stop-color="#FFD87D"/>
<stop offset="1" stop-color="#554CFF"/>
</linearGradient>
<clipPath id="clip0_2163_9587">
<rect width="16" height="16" fill="white" transform="matrix(1 0 0 -1 88 24)"/>
</clipPath>
</defs>
</svg>
