<svg width="114" height="129" viewBox="0 0 114 129" fill="none" xmlns="http://www.w3.org/2000/svg">
<g clip-path="url(#clip0_2163_9569)">
<rect x="12.3867" width="102" height="118.5" rx="24" transform="rotate(6 12.3867 0)" fill="#E9BC50"/>
<rect x="18.7279" y="7.83018" width="87.75" height="69.75" rx="22.875" transform="rotate(6 18.7279 7.83018)" fill="url(#paint0_linear_2163_9569)"/>
<rect x="18.7279" y="7.83018" width="87.75" height="69.75" rx="22.875" transform="rotate(6 18.7279 7.83018)" stroke="#141414" stroke-width="2.25"/>
<path d="M61.4999 45.1991L72.7576 34.2479L70.3886 33.9989L60.6139 43.5074L54.7766 32.358L46.7806 31.5176L55.6077 48.3777L43.8016 59.8615L46.1706 60.1104L56.4933 50.0691L62.6577 61.8433L70.6537 62.6837L61.4993 45.199L61.4999 45.1991ZM57.8459 48.7531L56.9485 47.0724L49.8096 33.6982L53.4482 34.0806L59.2091 44.8741L60.1063 46.5549L67.5954 60.5847L63.9571 60.2023L57.8459 48.7538L57.8459 48.7531Z" fill="#141414"/>
<path d="M28.3328 103.735L25.5223 103.44L26.6456 92.7529L24.5153 92.529L24.8164 89.6648L31.8874 90.4079L31.5864 93.2722L29.4561 93.0483L28.3328 103.735ZM42.7595 105.252L38.7854 104.834L38.7276 96.4299L38.5307 96.4092L36.6552 104.61L32.6811 104.192L32.906 90.515L35.7523 90.8142L35.392 100.097L35.5889 100.118L37.793 91.0287L40.6215 91.3259L40.9056 100.677L41.1025 100.698L42.6622 91.5404L45.3474 91.8227L42.7595 105.252ZM48.2312 105.827L45.3491 105.524L46.7734 91.9725L49.6555 92.2755L48.2312 105.827ZM54.5933 106.495L51.7828 106.2L52.9061 95.513L50.7758 95.2891L51.0769 92.4248L58.1479 93.168L57.8469 96.0323L55.7166 95.8084L54.5933 106.495ZM62.8399 107.362L60.0294 107.067L61.1526 96.3797L59.0223 96.1558L59.3234 93.2916L66.3944 94.0348L66.0934 96.899L63.9631 96.6751L62.8399 107.362ZM72.3258 108.359L66.3467 107.731L67.771 94.1795L73.768 94.8098L73.467 97.674L70.2805 97.3391L70.0303 99.72L73.163 100.049L72.8751 102.788L69.7424 102.459L69.4733 105.019L72.6419 105.352L72.3258 108.359ZM81.4454 109.318L78.4559 109.004C78.3597 108.541 78.3342 108.267 78.3055 105.096C78.3119 103.83 78.1696 103.634 77.8116 103.597L77.3819 103.551L76.8269 108.832L74.0164 108.537L75.4407 94.9856L79.5401 95.4164C81.9747 95.6723 82.4921 96.7765 82.2174 99.3901C81.9239 102.183 81.5093 102.338 80.6925 102.705L80.6813 102.812C80.8113 102.953 80.9611 103.077 81.0526 103.412C81.2043 103.863 81.3166 104.689 81.3479 106.285C81.385 108.515 81.3709 108.821 81.4548 109.228L81.4454 109.318ZM77.6472 101.027L78.4349 101.11C78.954 101.165 79.1886 100.827 79.3203 99.5742C79.4332 98.5002 79.2287 98.2072 78.6737 98.1489L77.9577 98.0736L77.6472 101.027Z" fill="#141414"/>
</g>
<rect x="13.0542" y="0.824288" width="100.5" height="117" rx="23.25" transform="rotate(6 13.0542 0.824288)" stroke="#141414" stroke-width="1.5"/>
<defs>
<linearGradient id="paint0_linear_2163_9569" x1="2.72668" y1="6.59376" x2="155.1" y2="28.8402" gradientUnits="userSpaceOnUse">
<stop stop-color="#E0B5FC"/>
<stop offset="0.49" stop-color="#FFD87D"/>
<stop offset="1" stop-color="#554CFF"/>
</linearGradient>
<clipPath id="clip0_2163_9569">
<rect x="12.3867" width="102" height="118.5" rx="24" transform="rotate(6 12.3867 0)" fill="white"/>
</clipPath>
</defs>
</svg>